G04 EAGLE Gerber RS-274X export*
G75*
%MOMM*%
%FSLAX34Y34*%
%LPD*%
%INBottom Copper*%
%IPPOS*%
%AMOC8*
5,1,8,0,0,1.08239X$1,22.5*%
G01*
%ADD10C,1.422400*%
%ADD11P,1.429621X8X292.500000*%
%ADD12P,1.429621X8X202.500000*%
%ADD13C,1.676400*%
%ADD14C,1.524000*%
%ADD15C,0.254000*%

G36*
X346988Y10176D02*
X346988Y10176D01*
X347107Y10183D01*
X347145Y10196D01*
X347186Y10201D01*
X347296Y10244D01*
X347409Y10281D01*
X347444Y10303D01*
X347481Y10318D01*
X347577Y10387D01*
X347678Y10451D01*
X347706Y10481D01*
X347739Y10504D01*
X347815Y10596D01*
X347896Y10683D01*
X347916Y10718D01*
X347941Y10749D01*
X347992Y10857D01*
X348050Y10961D01*
X348060Y11001D01*
X348077Y11037D01*
X348099Y11154D01*
X348129Y11269D01*
X348133Y11329D01*
X348137Y11349D01*
X348135Y11370D01*
X348139Y11430D01*
X348139Y19250D01*
X351209Y26660D01*
X356880Y32331D01*
X364290Y35401D01*
X369370Y35401D01*
X369488Y35416D01*
X369607Y35423D01*
X369645Y35436D01*
X369686Y35441D01*
X369796Y35484D01*
X369909Y35521D01*
X369944Y35543D01*
X369981Y35558D01*
X370077Y35627D01*
X370178Y35691D01*
X370206Y35721D01*
X370239Y35744D01*
X370315Y35836D01*
X370396Y35923D01*
X370416Y35958D01*
X370441Y35989D01*
X370492Y36097D01*
X370550Y36201D01*
X370560Y36241D01*
X370577Y36277D01*
X370599Y36394D01*
X370629Y36509D01*
X370633Y36569D01*
X370637Y36589D01*
X370635Y36610D01*
X370639Y36670D01*
X370639Y227490D01*
X370624Y227608D01*
X370617Y227727D01*
X370604Y227765D01*
X370599Y227806D01*
X370556Y227916D01*
X370519Y228029D01*
X370497Y228064D01*
X370482Y228101D01*
X370413Y228197D01*
X370349Y228298D01*
X370319Y228326D01*
X370296Y228359D01*
X370204Y228435D01*
X370117Y228516D01*
X370082Y228536D01*
X370051Y228561D01*
X369943Y228612D01*
X369839Y228670D01*
X369799Y228680D01*
X369763Y228697D01*
X369646Y228719D01*
X369531Y228749D01*
X369471Y228753D01*
X369451Y228757D01*
X369430Y228755D01*
X369370Y228759D01*
X364290Y228759D01*
X356880Y231829D01*
X351209Y237500D01*
X348139Y244910D01*
X348139Y251970D01*
X348124Y252088D01*
X348117Y252207D01*
X348104Y252245D01*
X348099Y252286D01*
X348056Y252396D01*
X348019Y252509D01*
X347997Y252544D01*
X347982Y252581D01*
X347913Y252677D01*
X347849Y252778D01*
X347819Y252806D01*
X347796Y252839D01*
X347704Y252915D01*
X347617Y252996D01*
X347582Y253016D01*
X347551Y253041D01*
X347443Y253092D01*
X347339Y253150D01*
X347299Y253160D01*
X347263Y253177D01*
X347146Y253199D01*
X347031Y253229D01*
X346971Y253233D01*
X346951Y253237D01*
X346930Y253235D01*
X346870Y253239D01*
X38660Y253239D01*
X38611Y253233D01*
X38561Y253235D01*
X38454Y253213D01*
X38345Y253199D01*
X38298Y253181D01*
X38250Y253171D01*
X38151Y253123D01*
X38049Y253082D01*
X38009Y253053D01*
X37964Y253031D01*
X37881Y252960D01*
X37792Y252896D01*
X37760Y252857D01*
X37722Y252825D01*
X37659Y252735D01*
X37589Y252651D01*
X37568Y252606D01*
X37539Y252565D01*
X37500Y252462D01*
X37453Y252363D01*
X37444Y252314D01*
X37426Y252268D01*
X37414Y252158D01*
X37393Y252051D01*
X37397Y252001D01*
X37391Y251952D01*
X37406Y251843D01*
X37413Y251733D01*
X37429Y251686D01*
X37435Y251637D01*
X37488Y251484D01*
X37941Y250390D01*
X37941Y242370D01*
X34871Y234960D01*
X29200Y229289D01*
X21790Y226219D01*
X13770Y226219D01*
X11916Y226987D01*
X11868Y227000D01*
X11823Y227022D01*
X11715Y227042D01*
X11609Y227071D01*
X11559Y227072D01*
X11510Y227081D01*
X11401Y227075D01*
X11291Y227076D01*
X11243Y227065D01*
X11193Y227062D01*
X11089Y227028D01*
X10982Y227002D01*
X10938Y226979D01*
X10891Y226964D01*
X10798Y226905D01*
X10701Y226853D01*
X10664Y226820D01*
X10622Y226793D01*
X10547Y226713D01*
X10465Y226639D01*
X10438Y226598D01*
X10404Y226562D01*
X10351Y226466D01*
X10291Y226374D01*
X10274Y226327D01*
X10250Y226283D01*
X10223Y226177D01*
X10187Y226073D01*
X10183Y226023D01*
X10171Y225975D01*
X10161Y225815D01*
X10161Y36670D01*
X10176Y36552D01*
X10183Y36433D01*
X10196Y36395D01*
X10201Y36354D01*
X10244Y36244D01*
X10281Y36131D01*
X10303Y36096D01*
X10318Y36059D01*
X10387Y35963D01*
X10451Y35862D01*
X10481Y35834D01*
X10504Y35801D01*
X10596Y35725D01*
X10683Y35644D01*
X10718Y35624D01*
X10749Y35599D01*
X10857Y35548D01*
X10961Y35490D01*
X11001Y35480D01*
X11037Y35463D01*
X11154Y35441D01*
X11269Y35411D01*
X11329Y35407D01*
X11349Y35403D01*
X11370Y35405D01*
X11430Y35401D01*
X19250Y35401D01*
X26660Y32331D01*
X32331Y26660D01*
X35401Y19250D01*
X35401Y11430D01*
X35416Y11312D01*
X35423Y11193D01*
X35436Y11155D01*
X35441Y11114D01*
X35484Y11004D01*
X35521Y10891D01*
X35543Y10856D01*
X35558Y10819D01*
X35627Y10723D01*
X35691Y10622D01*
X35721Y10594D01*
X35744Y10561D01*
X35836Y10485D01*
X35923Y10404D01*
X35958Y10384D01*
X35989Y10359D01*
X36097Y10308D01*
X36201Y10250D01*
X36241Y10240D01*
X36277Y10223D01*
X36394Y10201D01*
X36509Y10171D01*
X36569Y10167D01*
X36589Y10163D01*
X36610Y10165D01*
X36670Y10161D01*
X346870Y10161D01*
X346988Y10176D01*
G37*
%LPC*%
G36*
X68947Y37337D02*
X68947Y37337D01*
X64933Y39000D01*
X61860Y42073D01*
X61200Y43666D01*
X61190Y43685D01*
X61184Y43701D01*
X61181Y43706D01*
X61177Y43719D01*
X61107Y43829D01*
X61043Y43942D01*
X61022Y43963D01*
X61006Y43988D01*
X60912Y44077D01*
X60822Y44170D01*
X60796Y44186D01*
X60775Y44206D01*
X60661Y44269D01*
X60550Y44337D01*
X60522Y44345D01*
X60496Y44360D01*
X60371Y44392D01*
X60246Y44430D01*
X60217Y44432D01*
X60188Y44439D01*
X60028Y44449D01*
X45182Y44449D01*
X45084Y44437D01*
X44985Y44434D01*
X44927Y44417D01*
X44867Y44409D01*
X44774Y44373D01*
X44679Y44345D01*
X44627Y44315D01*
X44571Y44292D01*
X44491Y44234D01*
X44405Y44184D01*
X44330Y44118D01*
X44313Y44106D01*
X44306Y44096D01*
X44297Y44088D01*
X44295Y44087D01*
X44294Y44085D01*
X44288Y44080D01*
X40273Y42417D01*
X35927Y42417D01*
X31913Y44080D01*
X28840Y47153D01*
X27177Y51167D01*
X27177Y55513D01*
X28840Y59527D01*
X31913Y62600D01*
X35927Y64263D01*
X40273Y64263D01*
X44287Y62600D01*
X47360Y59527D01*
X49023Y55513D01*
X49023Y53340D01*
X49038Y53222D01*
X49045Y53103D01*
X49058Y53065D01*
X49063Y53024D01*
X49106Y52914D01*
X49143Y52801D01*
X49165Y52766D01*
X49180Y52729D01*
X49249Y52633D01*
X49313Y52532D01*
X49343Y52504D01*
X49366Y52471D01*
X49458Y52395D01*
X49545Y52314D01*
X49580Y52294D01*
X49611Y52269D01*
X49719Y52218D01*
X49823Y52160D01*
X49863Y52150D01*
X49899Y52133D01*
X50016Y52111D01*
X50131Y52081D01*
X50191Y52077D01*
X50211Y52073D01*
X50232Y52075D01*
X50292Y52071D01*
X60028Y52071D01*
X60057Y52074D01*
X60086Y52072D01*
X60215Y52094D01*
X60343Y52111D01*
X60371Y52121D01*
X60400Y52126D01*
X60518Y52180D01*
X60639Y52228D01*
X60663Y52245D01*
X60690Y52257D01*
X60791Y52338D01*
X60896Y52414D01*
X60915Y52437D01*
X60938Y52456D01*
X61016Y52559D01*
X61099Y52659D01*
X61112Y52686D01*
X61129Y52710D01*
X61200Y52854D01*
X61860Y54447D01*
X64933Y57520D01*
X68947Y59183D01*
X73293Y59183D01*
X77307Y57520D01*
X80380Y54447D01*
X82043Y50433D01*
X82043Y46087D01*
X80380Y42073D01*
X77307Y39000D01*
X73293Y37337D01*
X68947Y37337D01*
G37*
%LPD*%
%LPC*%
G36*
X315479Y116839D02*
X315479Y116839D01*
X311744Y118386D01*
X308886Y121244D01*
X307339Y124979D01*
X307339Y144261D01*
X308886Y147996D01*
X311744Y150854D01*
X315479Y152401D01*
X319521Y152401D01*
X323256Y150854D01*
X326114Y147996D01*
X327661Y144261D01*
X327661Y124979D01*
X326114Y121244D01*
X323256Y118386D01*
X319521Y116839D01*
X315479Y116839D01*
G37*
%LPD*%
%LPC*%
G36*
X264679Y116839D02*
X264679Y116839D01*
X260944Y118386D01*
X258086Y121244D01*
X256539Y124979D01*
X256539Y144261D01*
X258086Y147996D01*
X260944Y150854D01*
X264679Y152401D01*
X268721Y152401D01*
X272456Y150854D01*
X275314Y147996D01*
X276861Y144261D01*
X276861Y124979D01*
X275314Y121244D01*
X272456Y118386D01*
X268721Y116839D01*
X264679Y116839D01*
G37*
%LPD*%
%LPC*%
G36*
X29068Y206247D02*
X29068Y206247D01*
X25520Y207717D01*
X22805Y210432D01*
X21335Y213980D01*
X21335Y217820D01*
X22805Y221368D01*
X25520Y224083D01*
X29068Y225553D01*
X47132Y225553D01*
X50680Y224083D01*
X53395Y221368D01*
X54865Y217820D01*
X54865Y213980D01*
X53395Y210432D01*
X50680Y207717D01*
X47132Y206247D01*
X29068Y206247D01*
G37*
%LPD*%
%LPC*%
G36*
X29068Y180847D02*
X29068Y180847D01*
X25520Y182317D01*
X22805Y185032D01*
X21335Y188580D01*
X21335Y192420D01*
X22805Y195968D01*
X25520Y198683D01*
X29068Y200153D01*
X47132Y200153D01*
X50680Y198683D01*
X53395Y195968D01*
X54865Y192420D01*
X54865Y188580D01*
X53395Y185032D01*
X50680Y182317D01*
X47132Y180847D01*
X29068Y180847D01*
G37*
%LPD*%
%LPC*%
G36*
X338440Y49275D02*
X338440Y49275D01*
X334892Y50745D01*
X332177Y53460D01*
X330707Y57008D01*
X330707Y75072D01*
X332177Y78620D01*
X334892Y81335D01*
X338440Y82805D01*
X342280Y82805D01*
X345828Y81335D01*
X348543Y78620D01*
X350013Y75072D01*
X350013Y57008D01*
X348543Y53460D01*
X345828Y50745D01*
X342280Y49275D01*
X338440Y49275D01*
G37*
%LPD*%
%LPC*%
G36*
X208647Y146557D02*
X208647Y146557D01*
X204633Y148220D01*
X201560Y151293D01*
X199897Y155307D01*
X199897Y159653D01*
X201560Y163667D01*
X204633Y166740D01*
X208647Y168403D01*
X212993Y168403D01*
X217007Y166740D01*
X220080Y163667D01*
X221743Y159653D01*
X221743Y155307D01*
X220080Y151293D01*
X217007Y148220D01*
X212993Y146557D01*
X208647Y146557D01*
G37*
%LPD*%
%LPC*%
G36*
X173087Y146557D02*
X173087Y146557D01*
X169073Y148220D01*
X166000Y151293D01*
X164337Y155307D01*
X164337Y159653D01*
X166000Y163667D01*
X169073Y166740D01*
X173087Y168403D01*
X177433Y168403D01*
X181447Y166740D01*
X184520Y163667D01*
X186183Y159653D01*
X186183Y155307D01*
X184520Y151293D01*
X181447Y148220D01*
X177433Y146557D01*
X173087Y146557D01*
G37*
%LPD*%
%LPC*%
G36*
X71487Y146557D02*
X71487Y146557D01*
X67473Y148220D01*
X64400Y151293D01*
X62737Y155307D01*
X62737Y159653D01*
X64400Y163667D01*
X67473Y166740D01*
X71487Y168403D01*
X75833Y168403D01*
X79847Y166740D01*
X82920Y163667D01*
X84583Y159653D01*
X84583Y155307D01*
X82920Y151293D01*
X79847Y148220D01*
X75833Y146557D01*
X71487Y146557D01*
G37*
%LPD*%
%LPC*%
G36*
X35927Y144017D02*
X35927Y144017D01*
X31913Y145680D01*
X28840Y148753D01*
X27177Y152767D01*
X27177Y157113D01*
X28840Y161127D01*
X31913Y164200D01*
X35927Y165863D01*
X40273Y165863D01*
X44287Y164200D01*
X47360Y161127D01*
X49023Y157113D01*
X49023Y152767D01*
X47360Y148753D01*
X44287Y145680D01*
X40273Y144017D01*
X35927Y144017D01*
G37*
%LPD*%
%LPC*%
G36*
X148612Y110235D02*
X148612Y110235D01*
X143255Y115592D01*
X143255Y123168D01*
X148612Y128525D01*
X156188Y128525D01*
X161545Y123168D01*
X161545Y115592D01*
X156188Y110235D01*
X148612Y110235D01*
G37*
%LPD*%
%LPC*%
G36*
X90192Y110235D02*
X90192Y110235D01*
X84835Y115592D01*
X84835Y123168D01*
X90192Y128525D01*
X97768Y128525D01*
X103125Y123168D01*
X103125Y115592D01*
X97768Y110235D01*
X90192Y110235D01*
G37*
%LPD*%
%LPC*%
G36*
X273072Y56895D02*
X273072Y56895D01*
X267715Y62252D01*
X267715Y69828D01*
X273072Y75185D01*
X280648Y75185D01*
X286005Y69828D01*
X286005Y62252D01*
X280648Y56895D01*
X273072Y56895D01*
G37*
%LPD*%
%LPC*%
G36*
X294639Y137159D02*
X294639Y137159D01*
X294639Y152099D01*
X296000Y151656D01*
X297425Y150930D01*
X298719Y149990D01*
X299850Y148859D01*
X300790Y147565D01*
X301516Y146140D01*
X302011Y144619D01*
X302261Y143040D01*
X302261Y137159D01*
X294639Y137159D01*
G37*
%LPD*%
%LPC*%
G36*
X294639Y132081D02*
X294639Y132081D01*
X302261Y132081D01*
X302261Y126200D01*
X302011Y124621D01*
X301516Y123100D01*
X300790Y121675D01*
X299850Y120381D01*
X298719Y119250D01*
X297425Y118310D01*
X296000Y117584D01*
X294639Y117141D01*
X294639Y132081D01*
G37*
%LPD*%
%LPC*%
G36*
X281939Y137159D02*
X281939Y137159D01*
X281939Y143040D01*
X282189Y144619D01*
X282684Y146140D01*
X283410Y147565D01*
X284350Y148859D01*
X285481Y149990D01*
X286775Y150930D01*
X288200Y151656D01*
X289561Y152099D01*
X289561Y137159D01*
X281939Y137159D01*
G37*
%LPD*%
%LPC*%
G36*
X288200Y117584D02*
X288200Y117584D01*
X286775Y118310D01*
X285724Y119073D01*
X285481Y119250D01*
X284350Y120381D01*
X283410Y121675D01*
X282684Y123100D01*
X282189Y124621D01*
X281939Y126200D01*
X281939Y132081D01*
X289561Y132081D01*
X289561Y117141D01*
X288200Y117584D01*
G37*
%LPD*%
%LPC*%
G36*
X317245Y68325D02*
X317245Y68325D01*
X317245Y82559D01*
X318665Y82098D01*
X320019Y81408D01*
X321248Y80515D01*
X322323Y79440D01*
X323216Y78211D01*
X323906Y76857D01*
X324375Y75412D01*
X324613Y73912D01*
X324613Y68325D01*
X317245Y68325D01*
G37*
%LPD*%
%LPC*%
G36*
X317245Y63755D02*
X317245Y63755D01*
X324613Y63755D01*
X324613Y58168D01*
X324375Y56668D01*
X323906Y55223D01*
X323216Y53869D01*
X322323Y52640D01*
X321248Y51565D01*
X320019Y50672D01*
X318665Y49982D01*
X317245Y49521D01*
X317245Y63755D01*
G37*
%LPD*%
%LPC*%
G36*
X305307Y68325D02*
X305307Y68325D01*
X305307Y73912D01*
X305545Y75412D01*
X306014Y76857D01*
X306704Y78211D01*
X307597Y79440D01*
X308672Y80515D01*
X309901Y81408D01*
X311255Y82098D01*
X312675Y82559D01*
X312675Y68325D01*
X305307Y68325D01*
G37*
%LPD*%
%LPC*%
G36*
X311255Y49982D02*
X311255Y49982D01*
X309901Y50672D01*
X308672Y51565D01*
X307597Y52640D01*
X306704Y53869D01*
X306014Y55223D01*
X305545Y56668D01*
X305307Y58168D01*
X305307Y63755D01*
X312675Y63755D01*
X312675Y49521D01*
X311255Y49982D01*
G37*
%LPD*%
%LPC*%
G36*
X213359Y58419D02*
X213359Y58419D01*
X213359Y66537D01*
X213378Y66534D01*
X215013Y66003D01*
X216545Y65222D01*
X217936Y64211D01*
X219151Y62996D01*
X220162Y61605D01*
X220943Y60073D01*
X221474Y58438D01*
X221477Y58419D01*
X213359Y58419D01*
G37*
%LPD*%
%LPC*%
G36*
X175259Y50799D02*
X175259Y50799D01*
X175259Y58917D01*
X175278Y58914D01*
X176913Y58383D01*
X178445Y57602D01*
X179836Y56591D01*
X181051Y55376D01*
X182062Y53985D01*
X182843Y52453D01*
X183374Y50818D01*
X183377Y50799D01*
X175259Y50799D01*
G37*
%LPD*%
%LPC*%
G36*
X200163Y58419D02*
X200163Y58419D01*
X200166Y58438D01*
X200697Y60073D01*
X201478Y61605D01*
X202489Y62996D01*
X203704Y64211D01*
X205095Y65222D01*
X206627Y66003D01*
X208262Y66534D01*
X208281Y66537D01*
X208281Y58419D01*
X200163Y58419D01*
G37*
%LPD*%
%LPC*%
G36*
X162063Y50799D02*
X162063Y50799D01*
X162066Y50818D01*
X162597Y52453D01*
X163378Y53985D01*
X164389Y55376D01*
X165604Y56591D01*
X166995Y57602D01*
X168527Y58383D01*
X170162Y58914D01*
X170181Y58917D01*
X170181Y50799D01*
X162063Y50799D01*
G37*
%LPD*%
%LPC*%
G36*
X213359Y53341D02*
X213359Y53341D01*
X221477Y53341D01*
X221474Y53322D01*
X220943Y51687D01*
X220162Y50155D01*
X219151Y48764D01*
X217936Y47549D01*
X216545Y46538D01*
X215013Y45757D01*
X213378Y45226D01*
X213359Y45223D01*
X213359Y53341D01*
G37*
%LPD*%
%LPC*%
G36*
X175259Y45721D02*
X175259Y45721D01*
X183377Y45721D01*
X183374Y45702D01*
X182843Y44067D01*
X182062Y42535D01*
X181051Y41144D01*
X179836Y39929D01*
X178445Y38918D01*
X176913Y38137D01*
X175278Y37606D01*
X175259Y37603D01*
X175259Y45721D01*
G37*
%LPD*%
%LPC*%
G36*
X208262Y45226D02*
X208262Y45226D01*
X206627Y45757D01*
X205095Y46538D01*
X204837Y46726D01*
X203704Y47549D01*
X202489Y48764D01*
X201478Y50155D01*
X200697Y51687D01*
X200166Y53322D01*
X200163Y53341D01*
X208281Y53341D01*
X208281Y45223D01*
X208262Y45226D01*
G37*
%LPD*%
%LPC*%
G36*
X170162Y37606D02*
X170162Y37606D01*
X168527Y38137D01*
X166995Y38918D01*
X165604Y39929D01*
X164389Y41144D01*
X163378Y42535D01*
X162597Y44067D01*
X162066Y45702D01*
X162063Y45721D01*
X170181Y45721D01*
X170181Y37603D01*
X170162Y37606D01*
G37*
%LPD*%
%LPC*%
G36*
X154431Y96011D02*
X154431Y96011D01*
X154431Y103125D01*
X156188Y103125D01*
X161545Y97768D01*
X161545Y96011D01*
X154431Y96011D01*
G37*
%LPD*%
%LPC*%
G36*
X96011Y96011D02*
X96011Y96011D01*
X96011Y103125D01*
X97768Y103125D01*
X103125Y97768D01*
X103125Y96011D01*
X96011Y96011D01*
G37*
%LPD*%
%LPC*%
G36*
X253491Y68071D02*
X253491Y68071D01*
X253491Y75185D01*
X255248Y75185D01*
X260605Y69828D01*
X260605Y68071D01*
X253491Y68071D01*
G37*
%LPD*%
%LPC*%
G36*
X84835Y96011D02*
X84835Y96011D01*
X84835Y97768D01*
X90192Y103125D01*
X91949Y103125D01*
X91949Y96011D01*
X84835Y96011D01*
G37*
%LPD*%
%LPC*%
G36*
X242315Y68071D02*
X242315Y68071D01*
X242315Y69828D01*
X247672Y75185D01*
X249429Y75185D01*
X249429Y68071D01*
X242315Y68071D01*
G37*
%LPD*%
%LPC*%
G36*
X143255Y96011D02*
X143255Y96011D01*
X143255Y97768D01*
X148612Y103125D01*
X150369Y103125D01*
X150369Y96011D01*
X143255Y96011D01*
G37*
%LPD*%
%LPC*%
G36*
X253491Y56895D02*
X253491Y56895D01*
X253491Y64009D01*
X260605Y64009D01*
X260605Y62252D01*
X255248Y56895D01*
X253491Y56895D01*
G37*
%LPD*%
%LPC*%
G36*
X154431Y84835D02*
X154431Y84835D01*
X154431Y91949D01*
X161545Y91949D01*
X161545Y90192D01*
X156188Y84835D01*
X154431Y84835D01*
G37*
%LPD*%
%LPC*%
G36*
X96011Y84835D02*
X96011Y84835D01*
X96011Y91949D01*
X103125Y91949D01*
X103125Y90192D01*
X97768Y84835D01*
X96011Y84835D01*
G37*
%LPD*%
%LPC*%
G36*
X90192Y84835D02*
X90192Y84835D01*
X84835Y90192D01*
X84835Y91949D01*
X91949Y91949D01*
X91949Y84835D01*
X90192Y84835D01*
G37*
%LPD*%
%LPC*%
G36*
X247672Y56895D02*
X247672Y56895D01*
X242315Y62252D01*
X242315Y64009D01*
X249429Y64009D01*
X249429Y56895D01*
X247672Y56895D01*
G37*
%LPD*%
%LPC*%
G36*
X148612Y84835D02*
X148612Y84835D01*
X143255Y90192D01*
X143255Y91949D01*
X150369Y91949D01*
X150369Y84835D01*
X148612Y84835D01*
G37*
%LPD*%
%LPC*%
G36*
X292099Y134619D02*
X292099Y134619D01*
X292099Y134621D01*
X292101Y134621D01*
X292101Y134619D01*
X292099Y134619D01*
G37*
%LPD*%
%LPC*%
G36*
X172719Y48259D02*
X172719Y48259D01*
X172719Y48261D01*
X172721Y48261D01*
X172721Y48259D01*
X172719Y48259D01*
G37*
%LPD*%
%LPC*%
G36*
X210819Y55879D02*
X210819Y55879D01*
X210819Y55881D01*
X210821Y55881D01*
X210821Y55879D01*
X210819Y55879D01*
G37*
%LPD*%
D10*
X340360Y73152D02*
X340360Y58928D01*
X314960Y58928D02*
X314960Y73152D01*
D11*
X93980Y119380D03*
X93980Y93980D03*
X152400Y119380D03*
X152400Y93980D03*
D12*
X276860Y66040D03*
X251460Y66040D03*
D13*
X73660Y157480D03*
X175260Y157480D03*
X210820Y55880D03*
X210820Y157480D03*
X71120Y48260D03*
X172720Y48260D03*
X38100Y53340D03*
X38100Y154940D03*
D14*
X266700Y142240D02*
X266700Y127000D01*
X292100Y127000D02*
X292100Y142240D01*
X317500Y142240D02*
X317500Y127000D01*
D10*
X45212Y215900D02*
X30988Y215900D01*
X30988Y190500D02*
X45212Y190500D01*
D15*
X43180Y48260D02*
X71120Y48260D01*
X43180Y48260D02*
X38100Y53340D01*
X314960Y78740D02*
X314960Y111760D01*
X292100Y134620D01*
X314960Y78740D02*
X264160Y78740D01*
X251460Y66040D01*
X314960Y66040D02*
X314960Y78740D01*
M02*
