G04 EAGLE Gerber RS-274X export*
G75*
%MOMM*%
%FSLAX34Y34*%
%LPD*%
%INTop Copper*%
%IPPOS*%
%AMOC8*
5,1,8,0,0,1.08239X$1,22.5*%
G01*
%ADD10C,1.422400*%
%ADD11P,1.429621X8X292.500000*%
%ADD12P,1.429621X8X202.500000*%
%ADD13C,1.676400*%
%ADD14C,1.524000*%
%ADD15C,0.254000*%

G36*
X346988Y10176D02*
X346988Y10176D01*
X347107Y10183D01*
X347145Y10196D01*
X347186Y10201D01*
X347296Y10244D01*
X347409Y10281D01*
X347444Y10303D01*
X347481Y10318D01*
X347577Y10387D01*
X347678Y10451D01*
X347706Y10481D01*
X347739Y10504D01*
X347815Y10596D01*
X347896Y10683D01*
X347916Y10718D01*
X347941Y10749D01*
X347992Y10857D01*
X348050Y10961D01*
X348060Y11001D01*
X348077Y11037D01*
X348099Y11154D01*
X348129Y11269D01*
X348133Y11329D01*
X348137Y11349D01*
X348135Y11370D01*
X348139Y11430D01*
X348139Y19250D01*
X351209Y26660D01*
X356880Y32331D01*
X364290Y35401D01*
X369370Y35401D01*
X369488Y35416D01*
X369607Y35423D01*
X369645Y35436D01*
X369686Y35441D01*
X369796Y35484D01*
X369909Y35521D01*
X369944Y35543D01*
X369981Y35558D01*
X370077Y35627D01*
X370178Y35691D01*
X370206Y35721D01*
X370239Y35744D01*
X370315Y35836D01*
X370396Y35923D01*
X370416Y35958D01*
X370441Y35989D01*
X370492Y36097D01*
X370550Y36201D01*
X370560Y36241D01*
X370577Y36277D01*
X370599Y36394D01*
X370629Y36509D01*
X370633Y36569D01*
X370637Y36589D01*
X370635Y36610D01*
X370639Y36670D01*
X370639Y227490D01*
X370624Y227608D01*
X370617Y227727D01*
X370604Y227765D01*
X370599Y227806D01*
X370556Y227916D01*
X370519Y228029D01*
X370497Y228064D01*
X370482Y228101D01*
X370413Y228197D01*
X370349Y228298D01*
X370319Y228326D01*
X370296Y228359D01*
X370204Y228435D01*
X370117Y228516D01*
X370082Y228536D01*
X370051Y228561D01*
X369943Y228612D01*
X369839Y228670D01*
X369799Y228680D01*
X369763Y228697D01*
X369646Y228719D01*
X369531Y228749D01*
X369471Y228753D01*
X369451Y228757D01*
X369430Y228755D01*
X369370Y228759D01*
X364290Y228759D01*
X356880Y231829D01*
X351209Y237500D01*
X348139Y244910D01*
X348139Y251970D01*
X348124Y252088D01*
X348117Y252207D01*
X348104Y252245D01*
X348099Y252286D01*
X348056Y252396D01*
X348019Y252509D01*
X347997Y252544D01*
X347982Y252581D01*
X347913Y252677D01*
X347849Y252778D01*
X347819Y252806D01*
X347796Y252839D01*
X347704Y252915D01*
X347617Y252996D01*
X347582Y253016D01*
X347551Y253041D01*
X347443Y253092D01*
X347339Y253150D01*
X347299Y253160D01*
X347263Y253177D01*
X347146Y253199D01*
X347031Y253229D01*
X346971Y253233D01*
X346951Y253237D01*
X346930Y253235D01*
X346870Y253239D01*
X38660Y253239D01*
X38611Y253233D01*
X38561Y253235D01*
X38454Y253213D01*
X38345Y253199D01*
X38298Y253181D01*
X38250Y253171D01*
X38151Y253123D01*
X38049Y253082D01*
X38009Y253053D01*
X37964Y253031D01*
X37881Y252960D01*
X37792Y252896D01*
X37760Y252857D01*
X37722Y252825D01*
X37659Y252735D01*
X37589Y252651D01*
X37568Y252606D01*
X37539Y252565D01*
X37500Y252462D01*
X37453Y252363D01*
X37444Y252314D01*
X37426Y252268D01*
X37414Y252158D01*
X37393Y252051D01*
X37397Y252001D01*
X37391Y251952D01*
X37406Y251843D01*
X37413Y251733D01*
X37429Y251686D01*
X37435Y251637D01*
X37488Y251484D01*
X37941Y250390D01*
X37941Y242370D01*
X34871Y234960D01*
X29200Y229289D01*
X21790Y226219D01*
X13770Y226219D01*
X11916Y226987D01*
X11868Y227000D01*
X11823Y227022D01*
X11715Y227042D01*
X11609Y227071D01*
X11559Y227072D01*
X11510Y227081D01*
X11401Y227075D01*
X11291Y227076D01*
X11243Y227065D01*
X11193Y227062D01*
X11089Y227028D01*
X10982Y227002D01*
X10938Y226979D01*
X10891Y226964D01*
X10798Y226905D01*
X10701Y226853D01*
X10664Y226820D01*
X10622Y226793D01*
X10547Y226713D01*
X10465Y226639D01*
X10438Y226598D01*
X10404Y226562D01*
X10351Y226466D01*
X10291Y226374D01*
X10274Y226327D01*
X10250Y226283D01*
X10223Y226177D01*
X10187Y226073D01*
X10183Y226023D01*
X10171Y225975D01*
X10161Y225815D01*
X10161Y36670D01*
X10176Y36552D01*
X10183Y36433D01*
X10196Y36395D01*
X10201Y36354D01*
X10244Y36244D01*
X10281Y36131D01*
X10303Y36096D01*
X10318Y36059D01*
X10387Y35963D01*
X10451Y35862D01*
X10481Y35834D01*
X10504Y35801D01*
X10596Y35725D01*
X10683Y35644D01*
X10718Y35624D01*
X10749Y35599D01*
X10857Y35548D01*
X10961Y35490D01*
X11001Y35480D01*
X11037Y35463D01*
X11154Y35441D01*
X11269Y35411D01*
X11329Y35407D01*
X11349Y35403D01*
X11370Y35405D01*
X11430Y35401D01*
X19250Y35401D01*
X26660Y32331D01*
X32331Y26660D01*
X35401Y19250D01*
X35401Y11430D01*
X35416Y11312D01*
X35423Y11193D01*
X35436Y11155D01*
X35441Y11114D01*
X35484Y11004D01*
X35521Y10891D01*
X35543Y10856D01*
X35558Y10819D01*
X35627Y10723D01*
X35691Y10622D01*
X35721Y10594D01*
X35744Y10561D01*
X35836Y10485D01*
X35923Y10404D01*
X35958Y10384D01*
X35989Y10359D01*
X36097Y10308D01*
X36201Y10250D01*
X36241Y10240D01*
X36277Y10223D01*
X36394Y10201D01*
X36509Y10171D01*
X36569Y10167D01*
X36589Y10163D01*
X36610Y10165D01*
X36670Y10161D01*
X346870Y10161D01*
X346988Y10176D01*
G37*
%LPC*%
G36*
X35927Y42417D02*
X35927Y42417D01*
X31913Y44080D01*
X28840Y47153D01*
X27177Y51167D01*
X27177Y55513D01*
X27837Y57106D01*
X27845Y57134D01*
X27858Y57160D01*
X27887Y57287D01*
X27921Y57412D01*
X27922Y57442D01*
X27928Y57471D01*
X27924Y57600D01*
X27926Y57730D01*
X27919Y57759D01*
X27918Y57789D01*
X27882Y57913D01*
X27852Y58040D01*
X27838Y58066D01*
X27830Y58094D01*
X27764Y58206D01*
X27703Y58321D01*
X27683Y58343D01*
X27668Y58368D01*
X27562Y58489D01*
X21589Y64462D01*
X21589Y161598D01*
X33918Y173927D01*
X33978Y174005D01*
X34046Y174077D01*
X34075Y174130D01*
X34112Y174178D01*
X34152Y174269D01*
X34200Y174356D01*
X34215Y174414D01*
X34239Y174470D01*
X34254Y174568D01*
X34279Y174664D01*
X34285Y174764D01*
X34289Y174784D01*
X34287Y174796D01*
X34289Y174824D01*
X34289Y179578D01*
X34274Y179696D01*
X34267Y179815D01*
X34254Y179853D01*
X34249Y179894D01*
X34206Y180004D01*
X34169Y180117D01*
X34147Y180152D01*
X34132Y180189D01*
X34063Y180285D01*
X33999Y180386D01*
X33969Y180414D01*
X33946Y180447D01*
X33854Y180523D01*
X33767Y180604D01*
X33732Y180624D01*
X33701Y180649D01*
X33593Y180700D01*
X33489Y180758D01*
X33449Y180768D01*
X33413Y180785D01*
X33296Y180807D01*
X33181Y180837D01*
X33121Y180841D01*
X33101Y180845D01*
X33080Y180843D01*
X33020Y180847D01*
X29068Y180847D01*
X25520Y182317D01*
X22805Y185032D01*
X21335Y188580D01*
X21335Y192420D01*
X22805Y195968D01*
X25520Y198683D01*
X29068Y200153D01*
X45394Y200153D01*
X45531Y200170D01*
X45670Y200183D01*
X45689Y200190D01*
X45709Y200193D01*
X45838Y200244D01*
X45969Y200291D01*
X45986Y200302D01*
X46005Y200310D01*
X46118Y200391D01*
X46233Y200469D01*
X46246Y200485D01*
X46262Y200496D01*
X46351Y200604D01*
X46443Y200708D01*
X46452Y200726D01*
X46465Y200741D01*
X46524Y200867D01*
X46588Y200991D01*
X46592Y201011D01*
X46601Y201029D01*
X46627Y201165D01*
X46657Y201301D01*
X46657Y201322D01*
X46661Y201341D01*
X46652Y201480D01*
X46648Y201619D01*
X46642Y201639D01*
X46641Y201659D01*
X46598Y201791D01*
X46559Y201925D01*
X46549Y201942D01*
X46543Y201961D01*
X46468Y202079D01*
X46398Y202199D01*
X46379Y202220D01*
X46373Y202230D01*
X46358Y202244D01*
X46291Y202319D01*
X42735Y205876D01*
X42657Y205936D01*
X42585Y206004D01*
X42532Y206033D01*
X42484Y206070D01*
X42393Y206110D01*
X42306Y206158D01*
X42248Y206173D01*
X42192Y206197D01*
X42094Y206212D01*
X41998Y206237D01*
X41898Y206243D01*
X41878Y206247D01*
X41866Y206245D01*
X41838Y206247D01*
X29068Y206247D01*
X25520Y207717D01*
X22805Y210432D01*
X21335Y213980D01*
X21335Y217820D01*
X22805Y221368D01*
X25520Y224083D01*
X29068Y225553D01*
X47132Y225553D01*
X50680Y224083D01*
X53395Y221368D01*
X54865Y217820D01*
X54865Y213980D01*
X53395Y210432D01*
X52074Y209111D01*
X52001Y209017D01*
X51922Y208927D01*
X51903Y208891D01*
X51879Y208859D01*
X51831Y208750D01*
X51777Y208644D01*
X51768Y208605D01*
X51752Y208567D01*
X51734Y208450D01*
X51708Y208334D01*
X51709Y208293D01*
X51702Y208253D01*
X51714Y208135D01*
X51717Y208016D01*
X51728Y207977D01*
X51732Y207937D01*
X51773Y207825D01*
X51806Y207710D01*
X51826Y207676D01*
X51840Y207637D01*
X51907Y207539D01*
X51967Y207436D01*
X52007Y207391D01*
X52018Y207374D01*
X52034Y207361D01*
X52074Y207316D01*
X74867Y184522D01*
X77471Y181918D01*
X77471Y168572D01*
X77474Y168543D01*
X77472Y168514D01*
X77494Y168385D01*
X77511Y168257D01*
X77521Y168229D01*
X77526Y168200D01*
X77580Y168082D01*
X77628Y167961D01*
X77645Y167937D01*
X77657Y167910D01*
X77738Y167809D01*
X77814Y167704D01*
X77837Y167685D01*
X77856Y167662D01*
X77959Y167584D01*
X78059Y167501D01*
X78086Y167488D01*
X78110Y167471D01*
X78254Y167400D01*
X79847Y166740D01*
X82920Y163667D01*
X84583Y159653D01*
X84583Y155307D01*
X82920Y151293D01*
X79847Y148220D01*
X75833Y146557D01*
X71487Y146557D01*
X67473Y148220D01*
X64935Y150758D01*
X64857Y150818D01*
X64785Y150886D01*
X64732Y150915D01*
X64684Y150952D01*
X64593Y150992D01*
X64507Y151040D01*
X64448Y151055D01*
X64392Y151079D01*
X64294Y151094D01*
X64199Y151119D01*
X64099Y151125D01*
X64078Y151129D01*
X64066Y151127D01*
X64038Y151129D01*
X49192Y151129D01*
X49163Y151126D01*
X49134Y151128D01*
X49005Y151106D01*
X48877Y151089D01*
X48849Y151079D01*
X48820Y151074D01*
X48702Y151020D01*
X48581Y150972D01*
X48557Y150955D01*
X48530Y150943D01*
X48429Y150862D01*
X48324Y150786D01*
X48305Y150763D01*
X48282Y150744D01*
X48204Y150641D01*
X48121Y150541D01*
X48108Y150514D01*
X48091Y150490D01*
X48020Y150346D01*
X47360Y148753D01*
X44287Y145680D01*
X40273Y144017D01*
X35927Y144017D01*
X31913Y145680D01*
X31377Y146215D01*
X31268Y146300D01*
X31161Y146389D01*
X31142Y146398D01*
X31126Y146410D01*
X30998Y146466D01*
X30873Y146525D01*
X30853Y146529D01*
X30834Y146537D01*
X30696Y146559D01*
X30560Y146585D01*
X30540Y146583D01*
X30520Y146587D01*
X30381Y146574D01*
X30243Y146565D01*
X30224Y146559D01*
X30204Y146557D01*
X30073Y146510D01*
X29941Y146467D01*
X29923Y146456D01*
X29904Y146449D01*
X29790Y146371D01*
X29672Y146297D01*
X29658Y146282D01*
X29641Y146271D01*
X29549Y146167D01*
X29454Y146065D01*
X29444Y146047D01*
X29431Y146032D01*
X29368Y145908D01*
X29300Y145787D01*
X29295Y145767D01*
X29286Y145749D01*
X29256Y145613D01*
X29221Y145479D01*
X29219Y145451D01*
X29216Y145439D01*
X29217Y145418D01*
X29211Y145318D01*
X29211Y68144D01*
X29223Y68046D01*
X29226Y67947D01*
X29243Y67889D01*
X29251Y67829D01*
X29287Y67737D01*
X29315Y67641D01*
X29345Y67589D01*
X29368Y67533D01*
X29426Y67453D01*
X29476Y67368D01*
X29542Y67292D01*
X29554Y67276D01*
X29564Y67268D01*
X29582Y67247D01*
X32951Y63878D01*
X32975Y63860D01*
X32994Y63837D01*
X33100Y63763D01*
X33202Y63683D01*
X33230Y63671D01*
X33254Y63654D01*
X33375Y63608D01*
X33494Y63557D01*
X33523Y63552D01*
X33551Y63542D01*
X33680Y63527D01*
X33808Y63507D01*
X33838Y63510D01*
X33867Y63506D01*
X33996Y63525D01*
X34125Y63537D01*
X34153Y63547D01*
X34182Y63551D01*
X34334Y63603D01*
X35927Y64263D01*
X40273Y64263D01*
X44287Y62600D01*
X47360Y59527D01*
X49023Y55513D01*
X49023Y51167D01*
X47360Y47153D01*
X44287Y44080D01*
X40273Y42417D01*
X35927Y42417D01*
G37*
%LPD*%
%LPC*%
G36*
X90192Y110235D02*
X90192Y110235D01*
X84835Y115592D01*
X84835Y123168D01*
X90192Y128525D01*
X97768Y128525D01*
X102730Y123562D01*
X102808Y123502D01*
X102880Y123434D01*
X102933Y123405D01*
X102981Y123368D01*
X103072Y123328D01*
X103159Y123280D01*
X103218Y123265D01*
X103273Y123241D01*
X103371Y123226D01*
X103467Y123201D01*
X103567Y123195D01*
X103587Y123191D01*
X103600Y123193D01*
X103628Y123191D01*
X142752Y123191D01*
X142851Y123203D01*
X142950Y123206D01*
X143008Y123223D01*
X143068Y123231D01*
X143160Y123267D01*
X143255Y123295D01*
X143307Y123325D01*
X143364Y123348D01*
X143444Y123406D01*
X143529Y123456D01*
X143604Y123522D01*
X143621Y123534D01*
X143629Y123544D01*
X143650Y123562D01*
X148218Y128130D01*
X148278Y128208D01*
X148346Y128280D01*
X148375Y128333D01*
X148412Y128381D01*
X148452Y128472D01*
X148500Y128559D01*
X148515Y128618D01*
X148539Y128673D01*
X148554Y128771D01*
X148579Y128867D01*
X148585Y128967D01*
X148589Y128987D01*
X148587Y129000D01*
X148589Y129028D01*
X148589Y136198D01*
X164722Y152331D01*
X164740Y152355D01*
X164763Y152374D01*
X164837Y152480D01*
X164917Y152582D01*
X164929Y152610D01*
X164946Y152634D01*
X164992Y152755D01*
X165043Y152874D01*
X165048Y152903D01*
X165058Y152931D01*
X165073Y153060D01*
X165093Y153188D01*
X165090Y153218D01*
X165094Y153247D01*
X165075Y153376D01*
X165063Y153505D01*
X165053Y153533D01*
X165049Y153562D01*
X164997Y153714D01*
X164337Y155307D01*
X164337Y159653D01*
X166000Y163667D01*
X169073Y166740D01*
X173087Y168403D01*
X177433Y168403D01*
X181447Y166740D01*
X184520Y163667D01*
X185180Y162074D01*
X185194Y162049D01*
X185203Y162021D01*
X185273Y161911D01*
X185337Y161798D01*
X185358Y161777D01*
X185374Y161752D01*
X185468Y161663D01*
X185558Y161570D01*
X185584Y161554D01*
X185605Y161534D01*
X185719Y161471D01*
X185830Y161403D01*
X185858Y161395D01*
X185884Y161380D01*
X186009Y161348D01*
X186134Y161310D01*
X186163Y161308D01*
X186192Y161301D01*
X186352Y161291D01*
X199728Y161291D01*
X199757Y161294D01*
X199786Y161292D01*
X199915Y161314D01*
X200043Y161331D01*
X200071Y161341D01*
X200100Y161346D01*
X200218Y161400D01*
X200339Y161448D01*
X200363Y161465D01*
X200390Y161477D01*
X200491Y161558D01*
X200596Y161634D01*
X200615Y161657D01*
X200638Y161676D01*
X200716Y161779D01*
X200799Y161879D01*
X200812Y161906D01*
X200829Y161930D01*
X200900Y162074D01*
X201560Y163667D01*
X204633Y166740D01*
X208647Y168403D01*
X212993Y168403D01*
X217007Y166740D01*
X220080Y163667D01*
X221743Y159653D01*
X221743Y155307D01*
X221083Y153714D01*
X221075Y153686D01*
X221062Y153660D01*
X221033Y153533D01*
X220999Y153408D01*
X220998Y153378D01*
X220992Y153349D01*
X220996Y153220D01*
X220994Y153090D01*
X221001Y153061D01*
X221002Y153031D01*
X221038Y152907D01*
X221068Y152780D01*
X221082Y152754D01*
X221090Y152726D01*
X221156Y152614D01*
X221217Y152499D01*
X221237Y152477D01*
X221252Y152452D01*
X221358Y152331D01*
X234887Y138802D01*
X234965Y138742D01*
X235037Y138674D01*
X235090Y138645D01*
X235138Y138608D01*
X235229Y138568D01*
X235316Y138520D01*
X235374Y138505D01*
X235430Y138481D01*
X235528Y138466D01*
X235624Y138441D01*
X235724Y138435D01*
X235744Y138431D01*
X235756Y138433D01*
X235784Y138431D01*
X255270Y138431D01*
X255388Y138446D01*
X255507Y138453D01*
X255545Y138466D01*
X255586Y138471D01*
X255696Y138514D01*
X255809Y138551D01*
X255844Y138573D01*
X255881Y138588D01*
X255977Y138657D01*
X256078Y138721D01*
X256106Y138751D01*
X256139Y138774D01*
X256215Y138866D01*
X256296Y138953D01*
X256316Y138988D01*
X256341Y139019D01*
X256392Y139127D01*
X256450Y139231D01*
X256460Y139271D01*
X256477Y139307D01*
X256499Y139424D01*
X256529Y139539D01*
X256533Y139599D01*
X256537Y139619D01*
X256535Y139640D01*
X256539Y139700D01*
X256539Y144261D01*
X258086Y147996D01*
X260944Y150854D01*
X264679Y152401D01*
X268721Y152401D01*
X272456Y150854D01*
X275314Y147996D01*
X276861Y144261D01*
X276861Y124979D01*
X275314Y121244D01*
X272456Y118386D01*
X268721Y116839D01*
X264679Y116839D01*
X260944Y118386D01*
X258086Y121244D01*
X256539Y124979D01*
X256539Y129540D01*
X256524Y129658D01*
X256517Y129777D01*
X256504Y129815D01*
X256499Y129856D01*
X256456Y129966D01*
X256419Y130079D01*
X256397Y130114D01*
X256382Y130151D01*
X256313Y130247D01*
X256249Y130348D01*
X256219Y130376D01*
X256196Y130409D01*
X256104Y130485D01*
X256017Y130566D01*
X255982Y130586D01*
X255951Y130611D01*
X255843Y130662D01*
X255739Y130720D01*
X255699Y130730D01*
X255663Y130747D01*
X255546Y130769D01*
X255431Y130799D01*
X255371Y130803D01*
X255351Y130807D01*
X255330Y130805D01*
X255270Y130809D01*
X232102Y130809D01*
X215969Y146942D01*
X215945Y146960D01*
X215926Y146983D01*
X215820Y147057D01*
X215718Y147137D01*
X215690Y147149D01*
X215666Y147166D01*
X215545Y147212D01*
X215426Y147263D01*
X215397Y147268D01*
X215369Y147278D01*
X215240Y147293D01*
X215112Y147313D01*
X215082Y147310D01*
X215053Y147314D01*
X214924Y147295D01*
X214795Y147283D01*
X214767Y147273D01*
X214738Y147269D01*
X214586Y147217D01*
X212993Y146557D01*
X208647Y146557D01*
X204633Y148220D01*
X201560Y151293D01*
X200900Y152886D01*
X200886Y152911D01*
X200877Y152939D01*
X200807Y153049D01*
X200743Y153162D01*
X200722Y153183D01*
X200706Y153208D01*
X200612Y153297D01*
X200522Y153390D01*
X200496Y153406D01*
X200475Y153426D01*
X200361Y153489D01*
X200250Y153557D01*
X200222Y153565D01*
X200196Y153580D01*
X200071Y153612D01*
X199946Y153650D01*
X199917Y153652D01*
X199888Y153659D01*
X199728Y153669D01*
X186352Y153669D01*
X186323Y153666D01*
X186294Y153668D01*
X186165Y153646D01*
X186037Y153629D01*
X186009Y153619D01*
X185980Y153614D01*
X185862Y153560D01*
X185741Y153512D01*
X185717Y153495D01*
X185690Y153483D01*
X185589Y153402D01*
X185484Y153326D01*
X185465Y153303D01*
X185442Y153284D01*
X185364Y153181D01*
X185281Y153081D01*
X185268Y153054D01*
X185251Y153030D01*
X185180Y152886D01*
X184520Y151293D01*
X181447Y148220D01*
X177433Y146557D01*
X173087Y146557D01*
X171494Y147217D01*
X171466Y147225D01*
X171440Y147238D01*
X171313Y147267D01*
X171188Y147301D01*
X171158Y147302D01*
X171129Y147308D01*
X171000Y147304D01*
X170870Y147306D01*
X170841Y147299D01*
X170811Y147298D01*
X170687Y147262D01*
X170560Y147232D01*
X170534Y147218D01*
X170506Y147210D01*
X170394Y147144D01*
X170279Y147083D01*
X170257Y147063D01*
X170232Y147048D01*
X170111Y146942D01*
X156582Y133413D01*
X156522Y133335D01*
X156454Y133263D01*
X156425Y133210D01*
X156388Y133162D01*
X156348Y133071D01*
X156300Y132984D01*
X156285Y132926D01*
X156261Y132870D01*
X156246Y132772D01*
X156221Y132676D01*
X156215Y132576D01*
X156211Y132556D01*
X156213Y132544D01*
X156211Y132516D01*
X156211Y129028D01*
X156223Y128929D01*
X156226Y128830D01*
X156243Y128772D01*
X156251Y128712D01*
X156287Y128620D01*
X156315Y128525D01*
X156345Y128473D01*
X156368Y128416D01*
X156426Y128336D01*
X156476Y128251D01*
X156542Y128176D01*
X156554Y128159D01*
X156564Y128151D01*
X156582Y128130D01*
X161545Y123168D01*
X161545Y115592D01*
X156188Y110235D01*
X148612Y110235D01*
X143650Y115198D01*
X143572Y115258D01*
X143500Y115326D01*
X143447Y115355D01*
X143399Y115392D01*
X143308Y115432D01*
X143221Y115480D01*
X143162Y115495D01*
X143107Y115519D01*
X143009Y115534D01*
X142913Y115559D01*
X142813Y115565D01*
X142793Y115569D01*
X142780Y115567D01*
X142752Y115569D01*
X103628Y115569D01*
X103529Y115557D01*
X103430Y115554D01*
X103372Y115537D01*
X103312Y115529D01*
X103220Y115493D01*
X103125Y115465D01*
X103073Y115435D01*
X103016Y115412D01*
X102936Y115354D01*
X102851Y115304D01*
X102776Y115238D01*
X102759Y115226D01*
X102751Y115216D01*
X102730Y115198D01*
X97768Y110235D01*
X90192Y110235D01*
G37*
%LPD*%
%LPC*%
G36*
X310842Y41909D02*
X310842Y41909D01*
X290893Y61858D01*
X290815Y61918D01*
X290743Y61986D01*
X290690Y62015D01*
X290642Y62052D01*
X290551Y62092D01*
X290464Y62140D01*
X290406Y62155D01*
X290350Y62179D01*
X290252Y62194D01*
X290156Y62219D01*
X290056Y62225D01*
X290036Y62229D01*
X290024Y62227D01*
X289996Y62229D01*
X286508Y62229D01*
X286409Y62217D01*
X286310Y62214D01*
X286252Y62197D01*
X286192Y62189D01*
X286100Y62153D01*
X286005Y62125D01*
X285953Y62095D01*
X285896Y62072D01*
X285816Y62014D01*
X285731Y61964D01*
X285656Y61898D01*
X285639Y61886D01*
X285631Y61876D01*
X285610Y61858D01*
X280648Y56895D01*
X273072Y56895D01*
X267715Y62252D01*
X267715Y69828D01*
X273072Y75185D01*
X280648Y75185D01*
X285610Y70222D01*
X285688Y70162D01*
X285760Y70094D01*
X285813Y70065D01*
X285861Y70028D01*
X285952Y69988D01*
X286039Y69940D01*
X286098Y69925D01*
X286153Y69901D01*
X286251Y69886D01*
X286347Y69861D01*
X286447Y69855D01*
X286467Y69851D01*
X286480Y69853D01*
X286508Y69851D01*
X293678Y69851D01*
X303141Y60389D01*
X303250Y60303D01*
X303357Y60215D01*
X303376Y60206D01*
X303392Y60194D01*
X303520Y60138D01*
X303645Y60079D01*
X303665Y60075D01*
X303684Y60067D01*
X303822Y60045D01*
X303958Y60019D01*
X303978Y60021D01*
X303998Y60018D01*
X304137Y60031D01*
X304275Y60039D01*
X304294Y60045D01*
X304314Y60047D01*
X304446Y60095D01*
X304577Y60137D01*
X304595Y60148D01*
X304614Y60155D01*
X304729Y60233D01*
X304846Y60307D01*
X304860Y60322D01*
X304877Y60334D01*
X304969Y60438D01*
X305064Y60539D01*
X305074Y60557D01*
X305087Y60572D01*
X305151Y60696D01*
X305218Y60818D01*
X305223Y60837D01*
X305232Y60855D01*
X305262Y60991D01*
X305297Y61125D01*
X305299Y61154D01*
X305302Y61165D01*
X305301Y61186D01*
X305307Y61286D01*
X305307Y63755D01*
X313944Y63755D01*
X314062Y63770D01*
X314181Y63777D01*
X314219Y63789D01*
X314259Y63795D01*
X314370Y63838D01*
X314483Y63875D01*
X314517Y63897D01*
X314555Y63912D01*
X314651Y63981D01*
X314752Y64045D01*
X314780Y64075D01*
X314812Y64098D01*
X314888Y64190D01*
X314963Y64270D01*
X314997Y64216D01*
X315027Y64188D01*
X315051Y64155D01*
X315142Y64079D01*
X315229Y63998D01*
X315264Y63978D01*
X315296Y63953D01*
X315403Y63902D01*
X315508Y63844D01*
X315547Y63834D01*
X315583Y63817D01*
X315700Y63795D01*
X315816Y63765D01*
X315876Y63761D01*
X315896Y63757D01*
X315916Y63759D01*
X315976Y63755D01*
X324613Y63755D01*
X324613Y58746D01*
X324630Y58609D01*
X324643Y58470D01*
X324650Y58451D01*
X324653Y58431D01*
X324704Y58301D01*
X324751Y58171D01*
X324762Y58154D01*
X324770Y58135D01*
X324851Y58023D01*
X324929Y57907D01*
X324945Y57894D01*
X324956Y57878D01*
X325063Y57789D01*
X325168Y57697D01*
X325186Y57688D01*
X325201Y57675D01*
X325327Y57616D01*
X325451Y57552D01*
X325471Y57548D01*
X325489Y57539D01*
X325626Y57513D01*
X325761Y57483D01*
X325782Y57483D01*
X325801Y57479D01*
X325940Y57488D01*
X326079Y57492D01*
X326099Y57498D01*
X326119Y57499D01*
X326251Y57542D01*
X326385Y57581D01*
X326402Y57591D01*
X326421Y57597D01*
X326539Y57672D01*
X326659Y57742D01*
X326680Y57761D01*
X326690Y57767D01*
X326704Y57782D01*
X326779Y57849D01*
X330336Y61405D01*
X330396Y61483D01*
X330464Y61555D01*
X330493Y61608D01*
X330530Y61656D01*
X330570Y61747D01*
X330618Y61834D01*
X330633Y61892D01*
X330657Y61948D01*
X330672Y62046D01*
X330697Y62141D01*
X330703Y62242D01*
X330707Y62262D01*
X330705Y62274D01*
X330707Y62302D01*
X330707Y69778D01*
X330695Y69876D01*
X330692Y69975D01*
X330675Y70033D01*
X330667Y70093D01*
X330631Y70185D01*
X330603Y70281D01*
X330573Y70333D01*
X330550Y70389D01*
X330492Y70469D01*
X330442Y70554D01*
X330376Y70630D01*
X330364Y70646D01*
X330354Y70654D01*
X330336Y70675D01*
X326779Y74231D01*
X326670Y74317D01*
X326563Y74405D01*
X326544Y74414D01*
X326528Y74426D01*
X326400Y74482D01*
X326275Y74541D01*
X326255Y74545D01*
X326236Y74553D01*
X326098Y74575D01*
X325962Y74601D01*
X325942Y74599D01*
X325922Y74602D01*
X325783Y74589D01*
X325645Y74581D01*
X325626Y74575D01*
X325606Y74573D01*
X325474Y74525D01*
X325343Y74483D01*
X325325Y74472D01*
X325306Y74465D01*
X325191Y74387D01*
X325074Y74313D01*
X325060Y74298D01*
X325043Y74286D01*
X324951Y74182D01*
X324856Y74081D01*
X324846Y74063D01*
X324833Y74048D01*
X324769Y73924D01*
X324702Y73802D01*
X324697Y73783D01*
X324688Y73765D01*
X324658Y73629D01*
X324623Y73495D01*
X324621Y73466D01*
X324618Y73455D01*
X324619Y73434D01*
X324613Y73334D01*
X324613Y68325D01*
X317245Y68325D01*
X317245Y83240D01*
X317233Y83338D01*
X317230Y83437D01*
X317213Y83495D01*
X317205Y83555D01*
X317169Y83647D01*
X317141Y83743D01*
X317111Y83795D01*
X317088Y83851D01*
X317030Y83931D01*
X316980Y84016D01*
X316914Y84092D01*
X316902Y84108D01*
X316892Y84116D01*
X316874Y84137D01*
X313689Y87322D01*
X313689Y116732D01*
X313686Y116762D01*
X313688Y116791D01*
X313666Y116919D01*
X313649Y117048D01*
X313639Y117075D01*
X313634Y117105D01*
X313580Y117223D01*
X313532Y117344D01*
X313515Y117368D01*
X313503Y117394D01*
X313422Y117496D01*
X313346Y117601D01*
X313323Y117620D01*
X313304Y117643D01*
X313201Y117721D01*
X313101Y117804D01*
X313074Y117816D01*
X313050Y117834D01*
X312906Y117905D01*
X311744Y118386D01*
X308886Y121244D01*
X307339Y124979D01*
X307339Y144261D01*
X308886Y147996D01*
X311744Y150854D01*
X315479Y152401D01*
X319521Y152401D01*
X323256Y150854D01*
X326114Y147996D01*
X327661Y144261D01*
X327661Y124979D01*
X326114Y121244D01*
X323256Y118386D01*
X322094Y117905D01*
X322069Y117890D01*
X322041Y117881D01*
X321931Y117812D01*
X321818Y117748D01*
X321797Y117727D01*
X321772Y117711D01*
X321683Y117617D01*
X321590Y117526D01*
X321574Y117501D01*
X321554Y117480D01*
X321491Y117366D01*
X321423Y117255D01*
X321415Y117227D01*
X321400Y117201D01*
X321368Y117075D01*
X321330Y116951D01*
X321328Y116922D01*
X321321Y116893D01*
X321311Y116732D01*
X321311Y91004D01*
X321323Y90906D01*
X321326Y90807D01*
X321343Y90749D01*
X321351Y90689D01*
X321387Y90597D01*
X321415Y90501D01*
X321445Y90449D01*
X321468Y90393D01*
X321526Y90313D01*
X321576Y90228D01*
X321642Y90152D01*
X321654Y90136D01*
X321664Y90128D01*
X321682Y90107D01*
X331776Y80014D01*
X331870Y79941D01*
X331959Y79862D01*
X331995Y79843D01*
X332027Y79819D01*
X332136Y79771D01*
X332242Y79717D01*
X332282Y79708D01*
X332319Y79692D01*
X332437Y79674D01*
X332552Y79648D01*
X332593Y79649D01*
X332633Y79642D01*
X332751Y79654D01*
X332870Y79657D01*
X332909Y79668D01*
X332949Y79672D01*
X333061Y79713D01*
X333176Y79746D01*
X333211Y79766D01*
X333249Y79780D01*
X333347Y79847D01*
X333450Y79907D01*
X333495Y79947D01*
X333512Y79958D01*
X333525Y79974D01*
X333571Y80014D01*
X334892Y81335D01*
X338440Y82805D01*
X342280Y82805D01*
X345828Y81335D01*
X348543Y78620D01*
X350013Y75072D01*
X350013Y57008D01*
X348543Y53460D01*
X345828Y50745D01*
X342280Y49275D01*
X338440Y49275D01*
X334892Y50745D01*
X333571Y52066D01*
X333477Y52139D01*
X333387Y52218D01*
X333351Y52237D01*
X333319Y52261D01*
X333210Y52309D01*
X333104Y52363D01*
X333065Y52372D01*
X333027Y52388D01*
X332910Y52406D01*
X332794Y52432D01*
X332753Y52431D01*
X332713Y52438D01*
X332595Y52426D01*
X332476Y52423D01*
X332437Y52412D01*
X332397Y52408D01*
X332285Y52367D01*
X332170Y52334D01*
X332136Y52314D01*
X332097Y52300D01*
X331999Y52233D01*
X331896Y52173D01*
X331851Y52133D01*
X331834Y52122D01*
X331821Y52106D01*
X331776Y52066D01*
X321618Y41909D01*
X310842Y41909D01*
G37*
%LPD*%
%LPC*%
G36*
X68947Y37337D02*
X68947Y37337D01*
X64933Y39000D01*
X61860Y42073D01*
X60197Y46087D01*
X60197Y50433D01*
X61860Y54447D01*
X64933Y57520D01*
X68947Y59183D01*
X73293Y59183D01*
X77307Y57520D01*
X80380Y54447D01*
X82043Y50433D01*
X82043Y46087D01*
X80380Y42073D01*
X77307Y39000D01*
X73293Y37337D01*
X68947Y37337D01*
G37*
%LPD*%
%LPC*%
G36*
X294639Y137159D02*
X294639Y137159D01*
X294639Y152099D01*
X296000Y151656D01*
X297425Y150930D01*
X298719Y149990D01*
X299850Y148859D01*
X300790Y147565D01*
X301516Y146140D01*
X302011Y144619D01*
X302261Y143040D01*
X302261Y137159D01*
X294639Y137159D01*
G37*
%LPD*%
%LPC*%
G36*
X294639Y132081D02*
X294639Y132081D01*
X302261Y132081D01*
X302261Y126200D01*
X302011Y124621D01*
X301516Y123100D01*
X300790Y121675D01*
X299850Y120381D01*
X298719Y119250D01*
X297425Y118310D01*
X296000Y117584D01*
X294639Y117141D01*
X294639Y132081D01*
G37*
%LPD*%
%LPC*%
G36*
X281939Y137159D02*
X281939Y137159D01*
X281939Y143040D01*
X282189Y144619D01*
X282684Y146140D01*
X283410Y147565D01*
X284350Y148859D01*
X285481Y149990D01*
X286775Y150930D01*
X288200Y151656D01*
X289561Y152099D01*
X289561Y137159D01*
X281939Y137159D01*
G37*
%LPD*%
%LPC*%
G36*
X288200Y117584D02*
X288200Y117584D01*
X286775Y118310D01*
X285724Y119073D01*
X285481Y119250D01*
X284350Y120381D01*
X283410Y121675D01*
X282684Y123100D01*
X282189Y124621D01*
X281939Y126200D01*
X281939Y132081D01*
X289561Y132081D01*
X289561Y117141D01*
X288200Y117584D01*
G37*
%LPD*%
%LPC*%
G36*
X305307Y68325D02*
X305307Y68325D01*
X305307Y73912D01*
X305545Y75412D01*
X306014Y76857D01*
X306704Y78211D01*
X307597Y79440D01*
X308672Y80515D01*
X309901Y81408D01*
X311255Y82098D01*
X312675Y82559D01*
X312675Y68325D01*
X305307Y68325D01*
G37*
%LPD*%
%LPC*%
G36*
X175259Y50799D02*
X175259Y50799D01*
X175259Y58917D01*
X175278Y58914D01*
X176913Y58383D01*
X178445Y57602D01*
X179836Y56591D01*
X181051Y55376D01*
X182062Y53985D01*
X182843Y52453D01*
X183374Y50818D01*
X183377Y50799D01*
X175259Y50799D01*
G37*
%LPD*%
%LPC*%
G36*
X213359Y58419D02*
X213359Y58419D01*
X213359Y66537D01*
X213378Y66534D01*
X215013Y66003D01*
X216545Y65222D01*
X217936Y64211D01*
X219151Y62996D01*
X220162Y61605D01*
X220943Y60073D01*
X221474Y58438D01*
X221477Y58419D01*
X213359Y58419D01*
G37*
%LPD*%
%LPC*%
G36*
X213359Y53341D02*
X213359Y53341D01*
X221477Y53341D01*
X221474Y53322D01*
X220943Y51687D01*
X220162Y50155D01*
X219151Y48764D01*
X217936Y47549D01*
X216545Y46538D01*
X215013Y45757D01*
X213378Y45226D01*
X213359Y45223D01*
X213359Y53341D01*
G37*
%LPD*%
%LPC*%
G36*
X162063Y50799D02*
X162063Y50799D01*
X162066Y50818D01*
X162597Y52453D01*
X163378Y53985D01*
X164389Y55376D01*
X165604Y56591D01*
X166995Y57602D01*
X168527Y58383D01*
X170162Y58914D01*
X170181Y58917D01*
X170181Y50799D01*
X162063Y50799D01*
G37*
%LPD*%
%LPC*%
G36*
X200163Y58419D02*
X200163Y58419D01*
X200166Y58438D01*
X200697Y60073D01*
X201478Y61605D01*
X202489Y62996D01*
X203704Y64211D01*
X205095Y65222D01*
X206627Y66003D01*
X208262Y66534D01*
X208281Y66537D01*
X208281Y58419D01*
X200163Y58419D01*
G37*
%LPD*%
%LPC*%
G36*
X175259Y45721D02*
X175259Y45721D01*
X183377Y45721D01*
X183374Y45702D01*
X182843Y44067D01*
X182062Y42535D01*
X181051Y41144D01*
X179836Y39929D01*
X178445Y38918D01*
X176913Y38137D01*
X175278Y37606D01*
X175259Y37603D01*
X175259Y45721D01*
G37*
%LPD*%
%LPC*%
G36*
X208262Y45226D02*
X208262Y45226D01*
X206627Y45757D01*
X205095Y46538D01*
X204837Y46726D01*
X203704Y47549D01*
X202489Y48764D01*
X201478Y50155D01*
X200697Y51687D01*
X200166Y53322D01*
X200163Y53341D01*
X208281Y53341D01*
X208281Y45223D01*
X208262Y45226D01*
G37*
%LPD*%
%LPC*%
G36*
X170162Y37606D02*
X170162Y37606D01*
X168527Y38137D01*
X166995Y38918D01*
X165604Y39929D01*
X164389Y41144D01*
X163378Y42535D01*
X162597Y44067D01*
X162066Y45702D01*
X162063Y45721D01*
X170181Y45721D01*
X170181Y37603D01*
X170162Y37606D01*
G37*
%LPD*%
%LPC*%
G36*
X253491Y68071D02*
X253491Y68071D01*
X253491Y75185D01*
X255248Y75185D01*
X260605Y69828D01*
X260605Y68071D01*
X253491Y68071D01*
G37*
%LPD*%
%LPC*%
G36*
X96011Y96011D02*
X96011Y96011D01*
X96011Y103125D01*
X97768Y103125D01*
X103125Y97768D01*
X103125Y96011D01*
X96011Y96011D01*
G37*
%LPD*%
%LPC*%
G36*
X154431Y96011D02*
X154431Y96011D01*
X154431Y103125D01*
X156188Y103125D01*
X161545Y97768D01*
X161545Y96011D01*
X154431Y96011D01*
G37*
%LPD*%
%LPC*%
G36*
X242315Y68071D02*
X242315Y68071D01*
X242315Y69828D01*
X247672Y75185D01*
X249429Y75185D01*
X249429Y68071D01*
X242315Y68071D01*
G37*
%LPD*%
%LPC*%
G36*
X84835Y96011D02*
X84835Y96011D01*
X84835Y97768D01*
X90192Y103125D01*
X91949Y103125D01*
X91949Y96011D01*
X84835Y96011D01*
G37*
%LPD*%
%LPC*%
G36*
X143255Y96011D02*
X143255Y96011D01*
X143255Y97768D01*
X148612Y103125D01*
X150369Y103125D01*
X150369Y96011D01*
X143255Y96011D01*
G37*
%LPD*%
%LPC*%
G36*
X154431Y84835D02*
X154431Y84835D01*
X154431Y91949D01*
X161545Y91949D01*
X161545Y90192D01*
X156188Y84835D01*
X154431Y84835D01*
G37*
%LPD*%
%LPC*%
G36*
X253491Y56895D02*
X253491Y56895D01*
X253491Y64009D01*
X260605Y64009D01*
X260605Y62252D01*
X255248Y56895D01*
X253491Y56895D01*
G37*
%LPD*%
%LPC*%
G36*
X96011Y84835D02*
X96011Y84835D01*
X96011Y91949D01*
X103125Y91949D01*
X103125Y90192D01*
X97768Y84835D01*
X96011Y84835D01*
G37*
%LPD*%
%LPC*%
G36*
X148612Y84835D02*
X148612Y84835D01*
X143255Y90192D01*
X143255Y91949D01*
X150369Y91949D01*
X150369Y84835D01*
X148612Y84835D01*
G37*
%LPD*%
%LPC*%
G36*
X247672Y56895D02*
X247672Y56895D01*
X242315Y62252D01*
X242315Y64009D01*
X249429Y64009D01*
X249429Y56895D01*
X247672Y56895D01*
G37*
%LPD*%
%LPC*%
G36*
X90192Y84835D02*
X90192Y84835D01*
X84835Y90192D01*
X84835Y91949D01*
X91949Y91949D01*
X91949Y84835D01*
X90192Y84835D01*
G37*
%LPD*%
%LPC*%
G36*
X210819Y55879D02*
X210819Y55879D01*
X210819Y55881D01*
X210821Y55881D01*
X210821Y55879D01*
X210819Y55879D01*
G37*
%LPD*%
%LPC*%
G36*
X292099Y134619D02*
X292099Y134619D01*
X292099Y134621D01*
X292101Y134621D01*
X292101Y134619D01*
X292099Y134619D01*
G37*
%LPD*%
%LPC*%
G36*
X172719Y48259D02*
X172719Y48259D01*
X172719Y48261D01*
X172721Y48261D01*
X172721Y48259D01*
X172719Y48259D01*
G37*
%LPD*%
D10*
X340360Y73152D02*
X340360Y58928D01*
X314960Y58928D02*
X314960Y73152D01*
D11*
X93980Y119380D03*
X93980Y93980D03*
X152400Y119380D03*
X152400Y93980D03*
D12*
X276860Y66040D03*
X251460Y66040D03*
D13*
X73660Y157480D03*
X175260Y157480D03*
X210820Y55880D03*
X210820Y157480D03*
X71120Y48260D03*
X172720Y48260D03*
X38100Y53340D03*
X38100Y154940D03*
D14*
X266700Y142240D02*
X266700Y127000D01*
X292100Y127000D02*
X292100Y142240D01*
X317500Y142240D02*
X317500Y127000D01*
D10*
X45212Y215900D02*
X30988Y215900D01*
X30988Y190500D02*
X45212Y190500D01*
D15*
X38100Y215900D02*
X73660Y180340D01*
X73660Y157480D01*
X71120Y154940D02*
X38100Y154940D01*
X71120Y154940D02*
X73660Y157480D01*
X38100Y172720D02*
X38100Y190500D01*
X38100Y172720D02*
X25400Y160020D01*
X25400Y66040D01*
X38100Y53340D01*
X93980Y93980D02*
X152400Y93980D01*
X220980Y66040D02*
X251460Y66040D01*
X220980Y66040D02*
X210820Y55880D01*
X203200Y48260D02*
X172720Y48260D01*
X203200Y48260D02*
X210820Y55880D01*
X152400Y68580D02*
X152400Y93980D01*
X152400Y68580D02*
X172720Y48260D01*
X152400Y119380D02*
X93980Y119380D01*
X233680Y134620D02*
X266700Y134620D01*
X210820Y157480D02*
X175260Y157480D01*
X152400Y134620D02*
X152400Y119380D01*
X152400Y134620D02*
X175260Y157480D01*
X210820Y157480D02*
X233680Y134620D01*
X276860Y66040D02*
X292100Y66040D01*
X312420Y45720D01*
X320040Y45720D01*
X340360Y66040D01*
X317500Y88900D02*
X317500Y134620D01*
X317500Y88900D02*
X340360Y66040D01*
M02*
