G04 EAGLE Gerber RS-274X export*
G75*
%MOMM*%
%FSLAX34Y34*%
%LPD*%
%INSilkscreen Top*%
%IPPOS*%
%AMOC8*
5,1,8,0,0,1.08239X$1,22.5*%
G01*
%ADD10C,0.152400*%
%ADD11C,0.101600*%
%ADD12C,0.127000*%
%ADD13C,0.304800*%
%ADD14C,0.254000*%
%ADD15R,0.508000X2.540000*%
%ADD16R,1.905000X0.762000*%
%ADD17R,2.540000X0.508000*%
%ADD18R,0.762000X1.905000*%
%ADD19R,10.668000X0.762000*%
%ADD20R,1.905000X0.508000*%
%ADD21R,0.762000X0.508000*%


D10*
X150622Y206502D02*
X150622Y222758D01*
X150622Y215533D02*
X159653Y215533D01*
X159653Y222758D02*
X159653Y206502D01*
X165871Y206502D02*
X171290Y222758D01*
X176709Y206502D01*
X175354Y210566D02*
X167226Y210566D01*
X182927Y206502D02*
X182927Y222758D01*
X191958Y206502D01*
X191958Y222758D01*
X199600Y222758D02*
X199600Y206502D01*
X199600Y222758D02*
X204115Y222758D01*
X204246Y222756D01*
X204378Y222750D01*
X204509Y222741D01*
X204639Y222727D01*
X204770Y222710D01*
X204899Y222689D01*
X205028Y222665D01*
X205156Y222636D01*
X205284Y222604D01*
X205410Y222568D01*
X205535Y222529D01*
X205660Y222486D01*
X205782Y222439D01*
X205904Y222389D01*
X206024Y222335D01*
X206142Y222278D01*
X206258Y222217D01*
X206373Y222153D01*
X206486Y222086D01*
X206597Y222015D01*
X206705Y221941D01*
X206812Y221864D01*
X206916Y221784D01*
X207018Y221701D01*
X207117Y221616D01*
X207214Y221527D01*
X207308Y221435D01*
X207400Y221341D01*
X207489Y221244D01*
X207574Y221145D01*
X207657Y221043D01*
X207737Y220939D01*
X207814Y220832D01*
X207888Y220724D01*
X207959Y220613D01*
X208026Y220500D01*
X208090Y220385D01*
X208151Y220269D01*
X208208Y220151D01*
X208262Y220031D01*
X208312Y219909D01*
X208359Y219787D01*
X208402Y219662D01*
X208441Y219537D01*
X208477Y219411D01*
X208509Y219283D01*
X208538Y219155D01*
X208562Y219026D01*
X208583Y218897D01*
X208600Y218766D01*
X208614Y218636D01*
X208623Y218505D01*
X208629Y218373D01*
X208631Y218242D01*
X208631Y211018D01*
X208632Y211018D02*
X208630Y210887D01*
X208624Y210755D01*
X208615Y210624D01*
X208601Y210494D01*
X208584Y210363D01*
X208563Y210234D01*
X208539Y210105D01*
X208510Y209977D01*
X208478Y209849D01*
X208442Y209723D01*
X208403Y209598D01*
X208360Y209473D01*
X208313Y209351D01*
X208263Y209229D01*
X208209Y209109D01*
X208152Y208991D01*
X208091Y208875D01*
X208027Y208760D01*
X207960Y208647D01*
X207889Y208536D01*
X207815Y208428D01*
X207738Y208321D01*
X207658Y208217D01*
X207575Y208115D01*
X207490Y208016D01*
X207401Y207919D01*
X207309Y207825D01*
X207215Y207733D01*
X207118Y207644D01*
X207019Y207559D01*
X206917Y207476D01*
X206813Y207396D01*
X206706Y207319D01*
X206598Y207245D01*
X206487Y207174D01*
X206374Y207107D01*
X206259Y207043D01*
X206143Y206982D01*
X206025Y206925D01*
X205905Y206871D01*
X205783Y206821D01*
X205661Y206774D01*
X205536Y206731D01*
X205411Y206692D01*
X205285Y206656D01*
X205157Y206624D01*
X205029Y206595D01*
X204900Y206571D01*
X204770Y206550D01*
X204640Y206533D01*
X204510Y206519D01*
X204379Y206510D01*
X204247Y206504D01*
X204116Y206502D01*
X204115Y206502D02*
X199600Y206502D01*
X220650Y206502D02*
X220768Y206504D01*
X220886Y206510D01*
X221004Y206519D01*
X221121Y206533D01*
X221238Y206550D01*
X221355Y206571D01*
X221470Y206596D01*
X221585Y206625D01*
X221699Y206658D01*
X221811Y206694D01*
X221922Y206734D01*
X222032Y206777D01*
X222141Y206824D01*
X222248Y206874D01*
X222353Y206929D01*
X222456Y206986D01*
X222557Y207047D01*
X222657Y207111D01*
X222754Y207178D01*
X222849Y207248D01*
X222941Y207322D01*
X223032Y207398D01*
X223119Y207478D01*
X223204Y207560D01*
X223286Y207645D01*
X223366Y207732D01*
X223442Y207823D01*
X223516Y207915D01*
X223586Y208010D01*
X223653Y208107D01*
X223717Y208207D01*
X223778Y208308D01*
X223835Y208411D01*
X223890Y208516D01*
X223940Y208623D01*
X223987Y208732D01*
X224030Y208842D01*
X224070Y208953D01*
X224106Y209065D01*
X224139Y209179D01*
X224168Y209294D01*
X224193Y209409D01*
X224214Y209526D01*
X224231Y209643D01*
X224245Y209760D01*
X224254Y209878D01*
X224260Y209996D01*
X224262Y210114D01*
X220650Y206502D02*
X220467Y206504D01*
X220285Y206511D01*
X220103Y206522D01*
X219921Y206537D01*
X219739Y206557D01*
X219558Y206580D01*
X219378Y206609D01*
X219198Y206641D01*
X219019Y206678D01*
X218842Y206719D01*
X218665Y206765D01*
X218489Y206814D01*
X218315Y206868D01*
X218141Y206926D01*
X217970Y206988D01*
X217800Y207054D01*
X217631Y207125D01*
X217464Y207199D01*
X217299Y207277D01*
X217136Y207359D01*
X216975Y207445D01*
X216816Y207535D01*
X216659Y207629D01*
X216505Y207726D01*
X216353Y207827D01*
X216203Y207932D01*
X216056Y208040D01*
X215912Y208151D01*
X215770Y208266D01*
X215631Y208385D01*
X215495Y208507D01*
X215362Y208632D01*
X215232Y208760D01*
X215683Y219146D02*
X215685Y219264D01*
X215691Y219382D01*
X215700Y219500D01*
X215714Y219617D01*
X215731Y219734D01*
X215752Y219851D01*
X215777Y219966D01*
X215806Y220081D01*
X215839Y220195D01*
X215875Y220307D01*
X215915Y220418D01*
X215958Y220528D01*
X216005Y220637D01*
X216055Y220744D01*
X216110Y220849D01*
X216167Y220952D01*
X216228Y221053D01*
X216292Y221153D01*
X216359Y221250D01*
X216429Y221345D01*
X216503Y221437D01*
X216579Y221528D01*
X216659Y221615D01*
X216741Y221700D01*
X216826Y221782D01*
X216913Y221862D01*
X217004Y221938D01*
X217096Y222012D01*
X217191Y222082D01*
X217288Y222149D01*
X217388Y222213D01*
X217489Y222274D01*
X217592Y222332D01*
X217697Y222386D01*
X217804Y222436D01*
X217913Y222483D01*
X218023Y222527D01*
X218134Y222566D01*
X218247Y222602D01*
X218360Y222635D01*
X218475Y222664D01*
X218590Y222689D01*
X218707Y222710D01*
X218824Y222727D01*
X218941Y222741D01*
X219059Y222750D01*
X219177Y222756D01*
X219295Y222758D01*
X219456Y222756D01*
X219618Y222750D01*
X219779Y222741D01*
X219940Y222727D01*
X220100Y222710D01*
X220260Y222689D01*
X220420Y222664D01*
X220579Y222635D01*
X220737Y222603D01*
X220894Y222567D01*
X221050Y222527D01*
X221206Y222483D01*
X221360Y222435D01*
X221513Y222384D01*
X221665Y222330D01*
X221816Y222271D01*
X221965Y222210D01*
X222112Y222144D01*
X222258Y222075D01*
X222403Y222003D01*
X222545Y221927D01*
X222686Y221848D01*
X222825Y221766D01*
X222961Y221680D01*
X223096Y221591D01*
X223229Y221499D01*
X223359Y221403D01*
X217489Y215985D02*
X217388Y216047D01*
X217288Y216112D01*
X217191Y216181D01*
X217096Y216253D01*
X217003Y216327D01*
X216913Y216405D01*
X216825Y216486D01*
X216740Y216569D01*
X216658Y216655D01*
X216579Y216744D01*
X216502Y216835D01*
X216429Y216929D01*
X216358Y217025D01*
X216291Y217123D01*
X216227Y217223D01*
X216166Y217326D01*
X216109Y217430D01*
X216055Y217536D01*
X216005Y217644D01*
X215958Y217753D01*
X215914Y217864D01*
X215874Y217976D01*
X215838Y218090D01*
X215806Y218204D01*
X215777Y218320D01*
X215752Y218436D01*
X215731Y218553D01*
X215714Y218671D01*
X215700Y218789D01*
X215691Y218908D01*
X215685Y219027D01*
X215683Y219146D01*
X222456Y213275D02*
X222557Y213213D01*
X222657Y213148D01*
X222754Y213079D01*
X222849Y213007D01*
X222942Y212933D01*
X223032Y212855D01*
X223120Y212774D01*
X223205Y212691D01*
X223287Y212605D01*
X223366Y212516D01*
X223443Y212425D01*
X223516Y212331D01*
X223587Y212235D01*
X223654Y212137D01*
X223718Y212037D01*
X223779Y211934D01*
X223836Y211830D01*
X223890Y211724D01*
X223940Y211616D01*
X223987Y211507D01*
X224031Y211396D01*
X224071Y211284D01*
X224107Y211170D01*
X224139Y211056D01*
X224168Y210940D01*
X224193Y210824D01*
X224214Y210707D01*
X224231Y210589D01*
X224245Y210471D01*
X224254Y210352D01*
X224260Y210233D01*
X224262Y210114D01*
X222456Y213275D02*
X217489Y215985D01*
X230480Y212824D02*
X241318Y212824D01*
X248057Y211018D02*
X248057Y218242D01*
X248056Y218242D02*
X248058Y218375D01*
X248064Y218507D01*
X248074Y218639D01*
X248087Y218771D01*
X248105Y218903D01*
X248126Y219033D01*
X248151Y219164D01*
X248180Y219293D01*
X248213Y219421D01*
X248249Y219549D01*
X248289Y219675D01*
X248333Y219800D01*
X248381Y219924D01*
X248432Y220046D01*
X248487Y220167D01*
X248545Y220286D01*
X248607Y220404D01*
X248672Y220519D01*
X248741Y220633D01*
X248812Y220744D01*
X248888Y220853D01*
X248966Y220960D01*
X249047Y221065D01*
X249132Y221167D01*
X249219Y221267D01*
X249309Y221364D01*
X249402Y221459D01*
X249498Y221550D01*
X249596Y221639D01*
X249697Y221725D01*
X249801Y221808D01*
X249907Y221888D01*
X250015Y221964D01*
X250125Y222038D01*
X250238Y222108D01*
X250352Y222175D01*
X250469Y222238D01*
X250587Y222298D01*
X250707Y222355D01*
X250829Y222408D01*
X250952Y222457D01*
X251076Y222503D01*
X251202Y222545D01*
X251329Y222583D01*
X251457Y222618D01*
X251586Y222649D01*
X251715Y222676D01*
X251846Y222699D01*
X251977Y222719D01*
X252109Y222734D01*
X252241Y222746D01*
X252373Y222754D01*
X252506Y222758D01*
X252638Y222758D01*
X252771Y222754D01*
X252903Y222746D01*
X253035Y222734D01*
X253167Y222719D01*
X253298Y222699D01*
X253429Y222676D01*
X253558Y222649D01*
X253687Y222618D01*
X253815Y222583D01*
X253942Y222545D01*
X254068Y222503D01*
X254192Y222457D01*
X254315Y222408D01*
X254437Y222355D01*
X254557Y222298D01*
X254675Y222238D01*
X254792Y222175D01*
X254906Y222108D01*
X255019Y222038D01*
X255129Y221964D01*
X255237Y221888D01*
X255343Y221808D01*
X255447Y221725D01*
X255548Y221639D01*
X255646Y221550D01*
X255742Y221459D01*
X255835Y221364D01*
X255925Y221267D01*
X256012Y221167D01*
X256097Y221065D01*
X256178Y220960D01*
X256256Y220853D01*
X256332Y220744D01*
X256403Y220633D01*
X256472Y220519D01*
X256537Y220404D01*
X256599Y220286D01*
X256657Y220167D01*
X256712Y220046D01*
X256763Y219924D01*
X256811Y219800D01*
X256855Y219675D01*
X256895Y219549D01*
X256931Y219421D01*
X256964Y219293D01*
X256993Y219164D01*
X257018Y219033D01*
X257039Y218903D01*
X257057Y218771D01*
X257070Y218639D01*
X257080Y218507D01*
X257086Y218375D01*
X257088Y218242D01*
X257088Y211018D01*
X257086Y210885D01*
X257080Y210753D01*
X257070Y210621D01*
X257057Y210489D01*
X257039Y210357D01*
X257018Y210227D01*
X256993Y210096D01*
X256964Y209967D01*
X256931Y209839D01*
X256895Y209711D01*
X256855Y209585D01*
X256811Y209460D01*
X256763Y209336D01*
X256712Y209214D01*
X256657Y209093D01*
X256599Y208974D01*
X256537Y208856D01*
X256472Y208741D01*
X256403Y208627D01*
X256332Y208516D01*
X256256Y208407D01*
X256178Y208300D01*
X256097Y208195D01*
X256012Y208093D01*
X255925Y207993D01*
X255835Y207896D01*
X255742Y207801D01*
X255646Y207710D01*
X255548Y207621D01*
X255447Y207535D01*
X255343Y207452D01*
X255237Y207372D01*
X255129Y207296D01*
X255019Y207222D01*
X254906Y207152D01*
X254792Y207085D01*
X254675Y207022D01*
X254557Y206962D01*
X254437Y206905D01*
X254315Y206852D01*
X254192Y206803D01*
X254068Y206757D01*
X253942Y206715D01*
X253815Y206677D01*
X253687Y206642D01*
X253558Y206611D01*
X253429Y206584D01*
X253298Y206561D01*
X253167Y206541D01*
X253035Y206526D01*
X252903Y206514D01*
X252771Y206506D01*
X252638Y206502D01*
X252506Y206502D01*
X252373Y206506D01*
X252241Y206514D01*
X252109Y206526D01*
X251977Y206541D01*
X251846Y206561D01*
X251715Y206584D01*
X251586Y206611D01*
X251457Y206642D01*
X251329Y206677D01*
X251202Y206715D01*
X251076Y206757D01*
X250952Y206803D01*
X250829Y206852D01*
X250707Y206905D01*
X250587Y206962D01*
X250469Y207022D01*
X250352Y207085D01*
X250238Y207152D01*
X250125Y207222D01*
X250015Y207296D01*
X249907Y207372D01*
X249801Y207452D01*
X249697Y207535D01*
X249596Y207621D01*
X249498Y207710D01*
X249402Y207801D01*
X249309Y207896D01*
X249219Y207993D01*
X249132Y208093D01*
X249047Y208195D01*
X248966Y208300D01*
X248888Y208407D01*
X248812Y208516D01*
X248741Y208627D01*
X248672Y208741D01*
X248607Y208856D01*
X248545Y208974D01*
X248487Y209093D01*
X248432Y209214D01*
X248381Y209336D01*
X248333Y209460D01*
X248289Y209585D01*
X248249Y209711D01*
X248213Y209839D01*
X248180Y209967D01*
X248151Y210096D01*
X248126Y210227D01*
X248105Y210357D01*
X248087Y210489D01*
X248074Y210621D01*
X248064Y210753D01*
X248058Y210885D01*
X248056Y211018D01*
X264209Y206502D02*
X264209Y222758D01*
X273240Y206502D01*
X273240Y222758D01*
X289219Y222758D02*
X289219Y206502D01*
X289219Y222758D02*
X293735Y222758D01*
X293866Y222756D01*
X293998Y222750D01*
X294129Y222741D01*
X294259Y222727D01*
X294390Y222710D01*
X294519Y222689D01*
X294648Y222665D01*
X294776Y222636D01*
X294904Y222604D01*
X295030Y222568D01*
X295155Y222529D01*
X295280Y222486D01*
X295402Y222439D01*
X295524Y222389D01*
X295644Y222335D01*
X295762Y222278D01*
X295878Y222217D01*
X295993Y222153D01*
X296106Y222086D01*
X296217Y222015D01*
X296325Y221941D01*
X296432Y221864D01*
X296536Y221784D01*
X296638Y221701D01*
X296737Y221616D01*
X296834Y221527D01*
X296928Y221435D01*
X297020Y221341D01*
X297109Y221244D01*
X297194Y221145D01*
X297277Y221043D01*
X297357Y220939D01*
X297434Y220832D01*
X297508Y220724D01*
X297579Y220613D01*
X297646Y220500D01*
X297710Y220385D01*
X297771Y220269D01*
X297828Y220151D01*
X297882Y220031D01*
X297932Y219909D01*
X297979Y219787D01*
X298022Y219662D01*
X298061Y219537D01*
X298097Y219411D01*
X298129Y219283D01*
X298158Y219155D01*
X298182Y219026D01*
X298203Y218897D01*
X298220Y218766D01*
X298234Y218636D01*
X298243Y218505D01*
X298249Y218373D01*
X298251Y218242D01*
X298250Y218242D02*
X298250Y211018D01*
X298251Y211018D02*
X298249Y210887D01*
X298243Y210755D01*
X298234Y210624D01*
X298220Y210494D01*
X298203Y210363D01*
X298182Y210234D01*
X298158Y210105D01*
X298129Y209977D01*
X298097Y209849D01*
X298061Y209723D01*
X298022Y209598D01*
X297979Y209473D01*
X297932Y209351D01*
X297882Y209229D01*
X297828Y209109D01*
X297771Y208991D01*
X297710Y208875D01*
X297646Y208760D01*
X297579Y208647D01*
X297508Y208536D01*
X297434Y208428D01*
X297357Y208321D01*
X297277Y208217D01*
X297194Y208115D01*
X297109Y208016D01*
X297020Y207919D01*
X296928Y207825D01*
X296834Y207733D01*
X296737Y207644D01*
X296638Y207559D01*
X296536Y207476D01*
X296432Y207396D01*
X296325Y207319D01*
X296217Y207245D01*
X296106Y207174D01*
X295993Y207107D01*
X295878Y207043D01*
X295762Y206982D01*
X295644Y206925D01*
X295524Y206871D01*
X295402Y206821D01*
X295280Y206774D01*
X295155Y206731D01*
X295030Y206692D01*
X294904Y206656D01*
X294776Y206624D01*
X294648Y206595D01*
X294519Y206571D01*
X294389Y206550D01*
X294259Y206533D01*
X294129Y206519D01*
X293998Y206510D01*
X293866Y206504D01*
X293735Y206502D01*
X289219Y206502D01*
X305922Y206502D02*
X313147Y206502D01*
X305922Y206502D02*
X305922Y222758D01*
X313147Y222758D01*
X311341Y215533D02*
X305922Y215533D01*
X319578Y222758D02*
X319578Y206502D01*
X324997Y213727D02*
X319578Y222758D01*
X324997Y213727D02*
X330416Y222758D01*
X330416Y206502D01*
X337676Y211018D02*
X337676Y218242D01*
X337675Y218242D02*
X337677Y218375D01*
X337683Y218507D01*
X337693Y218639D01*
X337706Y218771D01*
X337724Y218903D01*
X337745Y219033D01*
X337770Y219164D01*
X337799Y219293D01*
X337832Y219421D01*
X337868Y219549D01*
X337908Y219675D01*
X337952Y219800D01*
X338000Y219924D01*
X338051Y220046D01*
X338106Y220167D01*
X338164Y220286D01*
X338226Y220404D01*
X338291Y220519D01*
X338360Y220633D01*
X338431Y220744D01*
X338507Y220853D01*
X338585Y220960D01*
X338666Y221065D01*
X338751Y221167D01*
X338838Y221267D01*
X338928Y221364D01*
X339021Y221459D01*
X339117Y221550D01*
X339215Y221639D01*
X339316Y221725D01*
X339420Y221808D01*
X339526Y221888D01*
X339634Y221964D01*
X339744Y222038D01*
X339857Y222108D01*
X339971Y222175D01*
X340088Y222238D01*
X340206Y222298D01*
X340326Y222355D01*
X340448Y222408D01*
X340571Y222457D01*
X340695Y222503D01*
X340821Y222545D01*
X340948Y222583D01*
X341076Y222618D01*
X341205Y222649D01*
X341334Y222676D01*
X341465Y222699D01*
X341596Y222719D01*
X341728Y222734D01*
X341860Y222746D01*
X341992Y222754D01*
X342125Y222758D01*
X342257Y222758D01*
X342390Y222754D01*
X342522Y222746D01*
X342654Y222734D01*
X342786Y222719D01*
X342917Y222699D01*
X343048Y222676D01*
X343177Y222649D01*
X343306Y222618D01*
X343434Y222583D01*
X343561Y222545D01*
X343687Y222503D01*
X343811Y222457D01*
X343934Y222408D01*
X344056Y222355D01*
X344176Y222298D01*
X344294Y222238D01*
X344411Y222175D01*
X344525Y222108D01*
X344638Y222038D01*
X344748Y221964D01*
X344856Y221888D01*
X344962Y221808D01*
X345066Y221725D01*
X345167Y221639D01*
X345265Y221550D01*
X345361Y221459D01*
X345454Y221364D01*
X345544Y221267D01*
X345631Y221167D01*
X345716Y221065D01*
X345797Y220960D01*
X345875Y220853D01*
X345951Y220744D01*
X346022Y220633D01*
X346091Y220519D01*
X346156Y220404D01*
X346218Y220286D01*
X346276Y220167D01*
X346331Y220046D01*
X346382Y219924D01*
X346430Y219800D01*
X346474Y219675D01*
X346514Y219549D01*
X346550Y219421D01*
X346583Y219293D01*
X346612Y219164D01*
X346637Y219033D01*
X346658Y218903D01*
X346676Y218771D01*
X346689Y218639D01*
X346699Y218507D01*
X346705Y218375D01*
X346707Y218242D01*
X346707Y211018D01*
X346705Y210885D01*
X346699Y210753D01*
X346689Y210621D01*
X346676Y210489D01*
X346658Y210357D01*
X346637Y210227D01*
X346612Y210096D01*
X346583Y209967D01*
X346550Y209839D01*
X346514Y209711D01*
X346474Y209585D01*
X346430Y209460D01*
X346382Y209336D01*
X346331Y209214D01*
X346276Y209093D01*
X346218Y208974D01*
X346156Y208856D01*
X346091Y208741D01*
X346022Y208627D01*
X345951Y208516D01*
X345875Y208407D01*
X345797Y208300D01*
X345716Y208195D01*
X345631Y208093D01*
X345544Y207993D01*
X345454Y207896D01*
X345361Y207801D01*
X345265Y207710D01*
X345167Y207621D01*
X345066Y207535D01*
X344962Y207452D01*
X344856Y207372D01*
X344748Y207296D01*
X344638Y207222D01*
X344525Y207152D01*
X344411Y207085D01*
X344294Y207022D01*
X344176Y206962D01*
X344056Y206905D01*
X343934Y206852D01*
X343811Y206803D01*
X343687Y206757D01*
X343561Y206715D01*
X343434Y206677D01*
X343306Y206642D01*
X343177Y206611D01*
X343048Y206584D01*
X342917Y206561D01*
X342786Y206541D01*
X342654Y206526D01*
X342522Y206514D01*
X342390Y206506D01*
X342257Y206502D01*
X342125Y206502D01*
X341992Y206506D01*
X341860Y206514D01*
X341728Y206526D01*
X341596Y206541D01*
X341465Y206561D01*
X341334Y206584D01*
X341205Y206611D01*
X341076Y206642D01*
X340948Y206677D01*
X340821Y206715D01*
X340695Y206757D01*
X340571Y206803D01*
X340448Y206852D01*
X340326Y206905D01*
X340206Y206962D01*
X340088Y207022D01*
X339971Y207085D01*
X339857Y207152D01*
X339744Y207222D01*
X339634Y207296D01*
X339526Y207372D01*
X339420Y207452D01*
X339316Y207535D01*
X339215Y207621D01*
X339117Y207710D01*
X339021Y207801D01*
X338928Y207896D01*
X338838Y207993D01*
X338751Y208093D01*
X338666Y208195D01*
X338585Y208300D01*
X338507Y208407D01*
X338431Y208516D01*
X338360Y208627D01*
X338291Y208741D01*
X338226Y208856D01*
X338164Y208974D01*
X338106Y209093D01*
X338051Y209214D01*
X338000Y209336D01*
X337952Y209460D01*
X337908Y209585D01*
X337868Y209711D01*
X337832Y209839D01*
X337799Y209967D01*
X337770Y210096D01*
X337745Y210227D01*
X337724Y210357D01*
X337706Y210489D01*
X337693Y210621D01*
X337683Y210753D01*
X337677Y210885D01*
X337675Y211018D01*
X361644Y219146D02*
X366159Y222758D01*
X366159Y206502D01*
X361644Y206502D02*
X370675Y206502D01*
D11*
X199983Y188468D02*
X196088Y188468D01*
X199983Y188468D02*
X200082Y188470D01*
X200182Y188476D01*
X200281Y188485D01*
X200379Y188498D01*
X200477Y188515D01*
X200575Y188536D01*
X200671Y188561D01*
X200766Y188589D01*
X200860Y188621D01*
X200953Y188656D01*
X201045Y188695D01*
X201135Y188738D01*
X201223Y188783D01*
X201310Y188833D01*
X201394Y188885D01*
X201477Y188941D01*
X201557Y188999D01*
X201635Y189061D01*
X201710Y189126D01*
X201783Y189194D01*
X201853Y189264D01*
X201921Y189337D01*
X201986Y189412D01*
X202048Y189490D01*
X202106Y189570D01*
X202162Y189653D01*
X202214Y189737D01*
X202264Y189824D01*
X202309Y189912D01*
X202352Y190002D01*
X202391Y190094D01*
X202426Y190187D01*
X202458Y190281D01*
X202486Y190376D01*
X202511Y190472D01*
X202532Y190570D01*
X202549Y190668D01*
X202562Y190766D01*
X202571Y190865D01*
X202577Y190965D01*
X202579Y191064D01*
X202579Y192363D01*
X202577Y192462D01*
X202571Y192562D01*
X202562Y192661D01*
X202549Y192759D01*
X202532Y192857D01*
X202511Y192955D01*
X202486Y193051D01*
X202458Y193146D01*
X202426Y193240D01*
X202391Y193333D01*
X202352Y193425D01*
X202309Y193515D01*
X202264Y193603D01*
X202214Y193690D01*
X202162Y193774D01*
X202106Y193857D01*
X202048Y193937D01*
X201986Y194015D01*
X201921Y194090D01*
X201853Y194163D01*
X201783Y194233D01*
X201710Y194301D01*
X201635Y194366D01*
X201557Y194428D01*
X201477Y194486D01*
X201394Y194542D01*
X201310Y194594D01*
X201223Y194644D01*
X201135Y194689D01*
X201045Y194732D01*
X200953Y194771D01*
X200860Y194806D01*
X200766Y194838D01*
X200671Y194866D01*
X200575Y194891D01*
X200477Y194912D01*
X200379Y194929D01*
X200281Y194942D01*
X200182Y194951D01*
X200082Y194957D01*
X199983Y194959D01*
X196088Y194959D01*
X196088Y200152D01*
X202579Y200152D01*
X207024Y196257D02*
X209621Y188468D01*
X212217Y196257D01*
X222109Y188468D02*
X226004Y200152D01*
X229898Y188468D01*
X228925Y191389D02*
X223083Y191389D01*
X236751Y188468D02*
X239348Y188468D01*
X236751Y188468D02*
X236652Y188470D01*
X236552Y188476D01*
X236453Y188485D01*
X236355Y188498D01*
X236257Y188515D01*
X236159Y188536D01*
X236063Y188561D01*
X235968Y188589D01*
X235874Y188621D01*
X235781Y188656D01*
X235689Y188695D01*
X235599Y188738D01*
X235511Y188783D01*
X235424Y188833D01*
X235340Y188885D01*
X235257Y188941D01*
X235177Y188999D01*
X235099Y189061D01*
X235024Y189126D01*
X234951Y189194D01*
X234881Y189264D01*
X234813Y189337D01*
X234748Y189412D01*
X234686Y189490D01*
X234628Y189570D01*
X234572Y189653D01*
X234520Y189737D01*
X234470Y189824D01*
X234425Y189912D01*
X234382Y190002D01*
X234343Y190094D01*
X234308Y190187D01*
X234276Y190281D01*
X234248Y190376D01*
X234223Y190472D01*
X234202Y190570D01*
X234185Y190668D01*
X234172Y190766D01*
X234163Y190865D01*
X234157Y190965D01*
X234155Y191064D01*
X234155Y197556D01*
X234157Y197655D01*
X234163Y197755D01*
X234172Y197854D01*
X234185Y197952D01*
X234202Y198050D01*
X234223Y198148D01*
X234248Y198244D01*
X234276Y198339D01*
X234308Y198433D01*
X234343Y198526D01*
X234382Y198618D01*
X234425Y198708D01*
X234470Y198796D01*
X234520Y198883D01*
X234572Y198967D01*
X234628Y199050D01*
X234686Y199130D01*
X234748Y199208D01*
X234813Y199283D01*
X234881Y199356D01*
X234951Y199426D01*
X235024Y199494D01*
X235099Y199559D01*
X235177Y199621D01*
X235257Y199679D01*
X235340Y199735D01*
X235424Y199787D01*
X235511Y199837D01*
X235599Y199882D01*
X235689Y199925D01*
X235781Y199964D01*
X235873Y199999D01*
X235968Y200031D01*
X236063Y200059D01*
X236159Y200084D01*
X236257Y200105D01*
X236355Y200122D01*
X236453Y200135D01*
X236552Y200144D01*
X236652Y200150D01*
X236751Y200152D01*
X239348Y200152D01*
X243826Y193012D02*
X251615Y193012D01*
X257048Y188468D02*
X257048Y200152D01*
X260294Y200152D01*
X260407Y200150D01*
X260520Y200144D01*
X260633Y200134D01*
X260746Y200120D01*
X260858Y200103D01*
X260969Y200081D01*
X261079Y200056D01*
X261189Y200026D01*
X261297Y199993D01*
X261404Y199956D01*
X261510Y199916D01*
X261614Y199871D01*
X261717Y199823D01*
X261818Y199772D01*
X261917Y199717D01*
X262014Y199659D01*
X262109Y199597D01*
X262202Y199532D01*
X262292Y199464D01*
X262380Y199393D01*
X262466Y199318D01*
X262549Y199241D01*
X262629Y199161D01*
X262706Y199078D01*
X262781Y198992D01*
X262852Y198904D01*
X262920Y198814D01*
X262985Y198721D01*
X263047Y198626D01*
X263105Y198529D01*
X263160Y198430D01*
X263211Y198329D01*
X263259Y198226D01*
X263304Y198122D01*
X263344Y198016D01*
X263381Y197909D01*
X263414Y197801D01*
X263444Y197691D01*
X263469Y197581D01*
X263491Y197470D01*
X263508Y197358D01*
X263522Y197245D01*
X263532Y197132D01*
X263538Y197019D01*
X263540Y196906D01*
X263539Y196906D02*
X263539Y191714D01*
X263540Y191714D02*
X263538Y191601D01*
X263532Y191488D01*
X263522Y191375D01*
X263508Y191262D01*
X263491Y191150D01*
X263469Y191039D01*
X263444Y190929D01*
X263414Y190819D01*
X263381Y190711D01*
X263344Y190604D01*
X263304Y190498D01*
X263259Y190394D01*
X263211Y190291D01*
X263160Y190190D01*
X263105Y190091D01*
X263047Y189994D01*
X262985Y189899D01*
X262920Y189806D01*
X262852Y189716D01*
X262781Y189628D01*
X262706Y189542D01*
X262629Y189459D01*
X262549Y189379D01*
X262466Y189302D01*
X262380Y189227D01*
X262292Y189156D01*
X262202Y189088D01*
X262109Y189023D01*
X262014Y188961D01*
X261917Y188903D01*
X261818Y188848D01*
X261717Y188797D01*
X261614Y188749D01*
X261510Y188704D01*
X261404Y188664D01*
X261297Y188627D01*
X261189Y188594D01*
X261079Y188564D01*
X260969Y188539D01*
X260858Y188517D01*
X260746Y188500D01*
X260633Y188486D01*
X260520Y188476D01*
X260407Y188470D01*
X260294Y188468D01*
X257048Y188468D01*
X271422Y188468D02*
X274019Y188468D01*
X271422Y188468D02*
X271323Y188470D01*
X271223Y188476D01*
X271124Y188485D01*
X271026Y188498D01*
X270928Y188515D01*
X270830Y188536D01*
X270734Y188561D01*
X270639Y188589D01*
X270545Y188621D01*
X270452Y188656D01*
X270360Y188695D01*
X270270Y188738D01*
X270182Y188783D01*
X270095Y188833D01*
X270011Y188885D01*
X269928Y188941D01*
X269848Y188999D01*
X269770Y189061D01*
X269695Y189126D01*
X269622Y189194D01*
X269552Y189264D01*
X269484Y189337D01*
X269419Y189412D01*
X269357Y189490D01*
X269299Y189570D01*
X269243Y189653D01*
X269191Y189737D01*
X269141Y189824D01*
X269096Y189912D01*
X269053Y190002D01*
X269014Y190094D01*
X268979Y190187D01*
X268947Y190281D01*
X268919Y190376D01*
X268894Y190472D01*
X268873Y190570D01*
X268856Y190668D01*
X268843Y190766D01*
X268834Y190865D01*
X268828Y190965D01*
X268826Y191064D01*
X268826Y197556D01*
X268828Y197655D01*
X268834Y197755D01*
X268843Y197854D01*
X268856Y197952D01*
X268873Y198050D01*
X268894Y198148D01*
X268919Y198244D01*
X268947Y198339D01*
X268979Y198433D01*
X269014Y198526D01*
X269053Y198618D01*
X269096Y198708D01*
X269141Y198796D01*
X269191Y198883D01*
X269243Y198967D01*
X269299Y199050D01*
X269357Y199130D01*
X269419Y199208D01*
X269484Y199283D01*
X269552Y199356D01*
X269622Y199426D01*
X269695Y199494D01*
X269770Y199559D01*
X269848Y199621D01*
X269928Y199679D01*
X270011Y199735D01*
X270095Y199787D01*
X270182Y199837D01*
X270270Y199882D01*
X270360Y199925D01*
X270452Y199964D01*
X270544Y199999D01*
X270639Y200031D01*
X270734Y200059D01*
X270830Y200084D01*
X270928Y200105D01*
X271026Y200122D01*
X271124Y200135D01*
X271223Y200144D01*
X271323Y200150D01*
X271422Y200152D01*
X274019Y200152D01*
X287043Y188468D02*
X289640Y188468D01*
X287043Y188468D02*
X286944Y188470D01*
X286844Y188476D01*
X286745Y188485D01*
X286647Y188498D01*
X286549Y188515D01*
X286451Y188536D01*
X286355Y188561D01*
X286260Y188589D01*
X286166Y188621D01*
X286073Y188656D01*
X285981Y188695D01*
X285891Y188738D01*
X285803Y188783D01*
X285716Y188833D01*
X285632Y188885D01*
X285549Y188941D01*
X285469Y188999D01*
X285391Y189061D01*
X285316Y189126D01*
X285243Y189194D01*
X285173Y189264D01*
X285105Y189337D01*
X285040Y189412D01*
X284978Y189490D01*
X284920Y189570D01*
X284864Y189653D01*
X284812Y189737D01*
X284762Y189824D01*
X284717Y189912D01*
X284674Y190002D01*
X284635Y190094D01*
X284600Y190187D01*
X284568Y190281D01*
X284540Y190376D01*
X284515Y190472D01*
X284494Y190570D01*
X284477Y190668D01*
X284464Y190766D01*
X284455Y190865D01*
X284449Y190965D01*
X284447Y191064D01*
X284447Y197556D01*
X284449Y197655D01*
X284455Y197755D01*
X284464Y197854D01*
X284477Y197952D01*
X284494Y198050D01*
X284515Y198148D01*
X284540Y198244D01*
X284568Y198339D01*
X284600Y198433D01*
X284635Y198526D01*
X284674Y198618D01*
X284717Y198708D01*
X284762Y198796D01*
X284812Y198883D01*
X284864Y198967D01*
X284920Y199050D01*
X284978Y199130D01*
X285040Y199208D01*
X285105Y199283D01*
X285173Y199356D01*
X285243Y199426D01*
X285316Y199494D01*
X285391Y199559D01*
X285469Y199621D01*
X285549Y199679D01*
X285632Y199735D01*
X285716Y199787D01*
X285803Y199837D01*
X285891Y199882D01*
X285981Y199925D01*
X286073Y199964D01*
X286165Y199999D01*
X286260Y200031D01*
X286355Y200059D01*
X286451Y200084D01*
X286549Y200105D01*
X286647Y200122D01*
X286745Y200135D01*
X286844Y200144D01*
X286944Y200150D01*
X287043Y200152D01*
X289640Y200152D01*
X294555Y200152D02*
X294555Y188468D01*
X294555Y193012D02*
X301046Y200152D01*
X297152Y195608D02*
X301046Y188468D01*
X307918Y188468D02*
X307918Y200152D01*
X304673Y200152D02*
X311164Y200152D01*
D10*
X350520Y48260D02*
X350520Y40640D01*
X350520Y48260D02*
X331470Y48260D01*
X330200Y49530D01*
X327660Y52070D01*
X325120Y49530D01*
X323850Y48260D01*
X330200Y87630D02*
X330200Y88900D01*
X350520Y88900D01*
X330200Y87630D02*
X325120Y87630D01*
X325120Y88900D01*
X304800Y88900D01*
X304800Y48260D02*
X323850Y48260D01*
X304800Y48260D02*
X304800Y40640D01*
X350520Y48260D02*
X350520Y81280D01*
X350520Y83820D02*
X350520Y88900D01*
X350520Y83820D02*
X346710Y83820D01*
X304800Y83820D02*
X304800Y88900D01*
X304800Y83820D02*
X308610Y83820D01*
X304800Y81280D02*
X304800Y48260D01*
X308610Y81280D02*
X308610Y83820D01*
X308610Y78740D02*
X321310Y78740D01*
X334010Y81280D02*
X334010Y83820D01*
X346710Y83820D02*
X346710Y81280D01*
X346710Y78740D02*
X334010Y78740D01*
X334010Y83820D02*
X321310Y83820D01*
X334010Y81280D02*
X334010Y78740D01*
X321310Y81280D02*
X321310Y83820D01*
X321310Y81280D02*
X321310Y78740D01*
X321310Y81280D02*
X325120Y81280D01*
X325120Y49530D01*
X330200Y81280D02*
X334010Y81280D01*
X330200Y81280D02*
X325120Y81280D01*
X330200Y81280D02*
X330200Y49530D01*
X308610Y81280D02*
X304800Y81280D01*
X308610Y81280D02*
X308610Y78740D01*
X304800Y81280D02*
X304800Y83820D01*
X346710Y81280D02*
X350520Y81280D01*
X346710Y81280D02*
X346710Y78740D01*
X350520Y81280D02*
X350520Y83820D01*
X350520Y40640D02*
X342900Y40640D01*
X342900Y39370D01*
X337820Y39370D02*
X337820Y40640D01*
X337820Y39370D02*
X342900Y39370D01*
X317500Y39370D02*
X317500Y40640D01*
X312420Y40640D02*
X304800Y40640D01*
X312420Y40640D02*
X312420Y39370D01*
X317500Y39370D01*
X325120Y40640D02*
X325120Y41910D01*
X325120Y40640D02*
X317500Y40640D01*
X325120Y41910D02*
X330200Y41910D01*
X330200Y40640D01*
X337820Y40640D01*
D12*
X337834Y51209D02*
X335915Y53608D01*
X344551Y53608D01*
X344551Y51209D02*
X344551Y56007D01*
X243586Y21971D02*
X239776Y21971D01*
X243586Y21971D02*
X243686Y21973D01*
X243785Y21979D01*
X243885Y21989D01*
X243983Y22002D01*
X244082Y22020D01*
X244179Y22041D01*
X244275Y22066D01*
X244371Y22095D01*
X244465Y22128D01*
X244558Y22164D01*
X244649Y22204D01*
X244739Y22248D01*
X244827Y22295D01*
X244913Y22345D01*
X244997Y22399D01*
X245079Y22456D01*
X245158Y22516D01*
X245236Y22580D01*
X245310Y22646D01*
X245382Y22715D01*
X245451Y22787D01*
X245517Y22861D01*
X245581Y22939D01*
X245641Y23018D01*
X245698Y23100D01*
X245752Y23184D01*
X245802Y23270D01*
X245849Y23358D01*
X245893Y23448D01*
X245933Y23539D01*
X245969Y23632D01*
X246002Y23726D01*
X246031Y23822D01*
X246056Y23918D01*
X246077Y24015D01*
X246095Y24114D01*
X246108Y24212D01*
X246118Y24312D01*
X246124Y24411D01*
X246126Y24511D01*
X246126Y25781D01*
X246124Y25881D01*
X246118Y25980D01*
X246108Y26080D01*
X246095Y26178D01*
X246077Y26277D01*
X246056Y26374D01*
X246031Y26470D01*
X246002Y26566D01*
X245969Y26660D01*
X245933Y26753D01*
X245893Y26844D01*
X245849Y26934D01*
X245802Y27022D01*
X245752Y27108D01*
X245698Y27192D01*
X245641Y27274D01*
X245581Y27353D01*
X245517Y27431D01*
X245451Y27505D01*
X245382Y27577D01*
X245310Y27646D01*
X245236Y27712D01*
X245158Y27776D01*
X245079Y27836D01*
X244997Y27893D01*
X244913Y27947D01*
X244827Y27997D01*
X244739Y28044D01*
X244649Y28088D01*
X244558Y28128D01*
X244465Y28164D01*
X244371Y28197D01*
X244275Y28226D01*
X244179Y28251D01*
X244082Y28272D01*
X243983Y28290D01*
X243885Y28303D01*
X243785Y28313D01*
X243686Y28319D01*
X243586Y28321D01*
X239776Y28321D01*
X239776Y33401D01*
X246126Y33401D01*
X250571Y33401D02*
X254381Y21971D01*
X258191Y33401D01*
X263017Y33401D02*
X263017Y21971D01*
X263017Y33401D02*
X266192Y33401D01*
X266303Y33399D01*
X266413Y33393D01*
X266524Y33384D01*
X266634Y33370D01*
X266743Y33353D01*
X266852Y33332D01*
X266960Y33307D01*
X267067Y33278D01*
X267173Y33246D01*
X267278Y33210D01*
X267381Y33170D01*
X267483Y33127D01*
X267584Y33080D01*
X267683Y33029D01*
X267780Y32976D01*
X267874Y32919D01*
X267967Y32858D01*
X268058Y32795D01*
X268147Y32728D01*
X268233Y32658D01*
X268316Y32585D01*
X268398Y32510D01*
X268476Y32432D01*
X268551Y32350D01*
X268624Y32267D01*
X268694Y32181D01*
X268761Y32092D01*
X268824Y32001D01*
X268885Y31908D01*
X268942Y31814D01*
X268995Y31717D01*
X269046Y31618D01*
X269093Y31517D01*
X269136Y31415D01*
X269176Y31312D01*
X269212Y31207D01*
X269244Y31101D01*
X269273Y30994D01*
X269298Y30886D01*
X269319Y30777D01*
X269336Y30668D01*
X269350Y30558D01*
X269359Y30447D01*
X269365Y30337D01*
X269367Y30226D01*
X269367Y25146D01*
X269365Y25035D01*
X269359Y24925D01*
X269350Y24814D01*
X269336Y24704D01*
X269319Y24595D01*
X269298Y24486D01*
X269273Y24378D01*
X269244Y24271D01*
X269212Y24165D01*
X269176Y24060D01*
X269136Y23957D01*
X269093Y23855D01*
X269046Y23754D01*
X268995Y23655D01*
X268942Y23558D01*
X268885Y23464D01*
X268824Y23371D01*
X268761Y23280D01*
X268694Y23191D01*
X268624Y23105D01*
X268551Y23022D01*
X268476Y22940D01*
X268398Y22862D01*
X268316Y22787D01*
X268233Y22714D01*
X268147Y22644D01*
X268058Y22577D01*
X267967Y22514D01*
X267874Y22453D01*
X267780Y22396D01*
X267683Y22343D01*
X267584Y22292D01*
X267483Y22245D01*
X267381Y22202D01*
X267278Y22162D01*
X267173Y22126D01*
X267067Y22094D01*
X266960Y22065D01*
X266852Y22040D01*
X266743Y22019D01*
X266634Y22002D01*
X266524Y21988D01*
X266413Y21979D01*
X266303Y21973D01*
X266192Y21971D01*
X263017Y21971D01*
X277331Y21971D02*
X279871Y21971D01*
X277331Y21971D02*
X277231Y21973D01*
X277132Y21979D01*
X277032Y21989D01*
X276934Y22002D01*
X276835Y22020D01*
X276738Y22041D01*
X276642Y22066D01*
X276546Y22095D01*
X276452Y22128D01*
X276359Y22164D01*
X276268Y22204D01*
X276178Y22248D01*
X276090Y22295D01*
X276004Y22345D01*
X275920Y22399D01*
X275838Y22456D01*
X275759Y22516D01*
X275681Y22580D01*
X275607Y22646D01*
X275535Y22715D01*
X275466Y22787D01*
X275400Y22861D01*
X275336Y22939D01*
X275276Y23018D01*
X275219Y23100D01*
X275165Y23184D01*
X275115Y23270D01*
X275068Y23358D01*
X275024Y23448D01*
X274984Y23539D01*
X274948Y23632D01*
X274915Y23726D01*
X274886Y23822D01*
X274861Y23918D01*
X274840Y24015D01*
X274822Y24114D01*
X274809Y24212D01*
X274799Y24312D01*
X274793Y24411D01*
X274791Y24511D01*
X274791Y30861D01*
X274793Y30961D01*
X274799Y31060D01*
X274809Y31160D01*
X274822Y31258D01*
X274840Y31357D01*
X274861Y31454D01*
X274886Y31550D01*
X274915Y31646D01*
X274948Y31740D01*
X274984Y31833D01*
X275024Y31924D01*
X275068Y32014D01*
X275115Y32102D01*
X275165Y32188D01*
X275219Y32272D01*
X275276Y32354D01*
X275336Y32433D01*
X275400Y32511D01*
X275466Y32585D01*
X275535Y32657D01*
X275607Y32726D01*
X275681Y32792D01*
X275759Y32856D01*
X275838Y32916D01*
X275920Y32973D01*
X276004Y33027D01*
X276090Y33077D01*
X276178Y33124D01*
X276268Y33168D01*
X276359Y33208D01*
X276452Y33244D01*
X276546Y33277D01*
X276642Y33306D01*
X276738Y33331D01*
X276835Y33352D01*
X276934Y33370D01*
X277032Y33383D01*
X277132Y33393D01*
X277231Y33399D01*
X277331Y33401D01*
X279871Y33401D01*
X284480Y26416D02*
X292100Y26416D01*
X297307Y25146D02*
X297307Y30226D01*
X297309Y30337D01*
X297315Y30447D01*
X297324Y30558D01*
X297338Y30668D01*
X297355Y30777D01*
X297376Y30886D01*
X297401Y30994D01*
X297430Y31101D01*
X297462Y31207D01*
X297498Y31312D01*
X297538Y31415D01*
X297581Y31517D01*
X297628Y31618D01*
X297679Y31717D01*
X297732Y31813D01*
X297789Y31908D01*
X297850Y32001D01*
X297913Y32092D01*
X297980Y32181D01*
X298050Y32267D01*
X298123Y32350D01*
X298198Y32432D01*
X298276Y32510D01*
X298358Y32585D01*
X298441Y32658D01*
X298527Y32728D01*
X298616Y32795D01*
X298707Y32858D01*
X298800Y32919D01*
X298895Y32976D01*
X298991Y33029D01*
X299090Y33080D01*
X299191Y33127D01*
X299293Y33170D01*
X299396Y33210D01*
X299501Y33246D01*
X299607Y33278D01*
X299714Y33307D01*
X299822Y33332D01*
X299931Y33353D01*
X300040Y33370D01*
X300150Y33384D01*
X300261Y33393D01*
X300371Y33399D01*
X300482Y33401D01*
X300593Y33399D01*
X300703Y33393D01*
X300814Y33384D01*
X300924Y33370D01*
X301033Y33353D01*
X301142Y33332D01*
X301250Y33307D01*
X301357Y33278D01*
X301463Y33246D01*
X301568Y33210D01*
X301671Y33170D01*
X301773Y33127D01*
X301874Y33080D01*
X301973Y33029D01*
X302070Y32976D01*
X302164Y32919D01*
X302257Y32858D01*
X302348Y32795D01*
X302437Y32728D01*
X302523Y32658D01*
X302606Y32585D01*
X302688Y32510D01*
X302766Y32432D01*
X302841Y32350D01*
X302914Y32267D01*
X302984Y32181D01*
X303051Y32092D01*
X303114Y32001D01*
X303175Y31908D01*
X303232Y31814D01*
X303285Y31717D01*
X303336Y31618D01*
X303383Y31517D01*
X303426Y31415D01*
X303466Y31312D01*
X303502Y31207D01*
X303534Y31101D01*
X303563Y30994D01*
X303588Y30886D01*
X303609Y30777D01*
X303626Y30668D01*
X303640Y30558D01*
X303649Y30447D01*
X303655Y30337D01*
X303657Y30226D01*
X303657Y25146D01*
X303655Y25035D01*
X303649Y24925D01*
X303640Y24814D01*
X303626Y24704D01*
X303609Y24595D01*
X303588Y24486D01*
X303563Y24378D01*
X303534Y24271D01*
X303502Y24165D01*
X303466Y24060D01*
X303426Y23957D01*
X303383Y23855D01*
X303336Y23754D01*
X303285Y23655D01*
X303232Y23558D01*
X303175Y23464D01*
X303114Y23371D01*
X303051Y23280D01*
X302984Y23191D01*
X302914Y23105D01*
X302841Y23022D01*
X302766Y22940D01*
X302688Y22862D01*
X302606Y22787D01*
X302523Y22714D01*
X302437Y22644D01*
X302348Y22577D01*
X302257Y22514D01*
X302164Y22453D01*
X302069Y22396D01*
X301973Y22343D01*
X301874Y22292D01*
X301773Y22245D01*
X301671Y22202D01*
X301568Y22162D01*
X301463Y22126D01*
X301357Y22094D01*
X301250Y22065D01*
X301142Y22040D01*
X301033Y22019D01*
X300924Y22002D01*
X300814Y21988D01*
X300703Y21979D01*
X300593Y21973D01*
X300482Y21971D01*
X300371Y21973D01*
X300261Y21979D01*
X300150Y21988D01*
X300040Y22002D01*
X299931Y22019D01*
X299822Y22040D01*
X299714Y22065D01*
X299607Y22094D01*
X299501Y22126D01*
X299396Y22162D01*
X299293Y22202D01*
X299191Y22245D01*
X299090Y22292D01*
X298991Y22343D01*
X298895Y22396D01*
X298800Y22453D01*
X298707Y22514D01*
X298616Y22577D01*
X298527Y22644D01*
X298441Y22714D01*
X298358Y22787D01*
X298276Y22862D01*
X298198Y22940D01*
X298123Y23022D01*
X298050Y23105D01*
X297980Y23191D01*
X297913Y23280D01*
X297850Y23371D01*
X297789Y23464D01*
X297732Y23559D01*
X297679Y23655D01*
X297628Y23754D01*
X297581Y23855D01*
X297538Y23957D01*
X297498Y24060D01*
X297462Y24165D01*
X297430Y24271D01*
X297401Y24378D01*
X297376Y24486D01*
X297355Y24595D01*
X297338Y24704D01*
X297324Y24814D01*
X297315Y24925D01*
X297309Y25035D01*
X297307Y25146D01*
X309118Y25146D02*
X309118Y33401D01*
X309118Y25146D02*
X309120Y25035D01*
X309126Y24925D01*
X309135Y24814D01*
X309149Y24704D01*
X309166Y24595D01*
X309187Y24486D01*
X309212Y24378D01*
X309241Y24271D01*
X309273Y24165D01*
X309309Y24060D01*
X309349Y23957D01*
X309392Y23855D01*
X309439Y23754D01*
X309490Y23655D01*
X309543Y23559D01*
X309600Y23464D01*
X309661Y23371D01*
X309724Y23280D01*
X309791Y23191D01*
X309861Y23105D01*
X309934Y23022D01*
X310009Y22940D01*
X310087Y22862D01*
X310169Y22787D01*
X310252Y22714D01*
X310338Y22644D01*
X310427Y22577D01*
X310518Y22514D01*
X310611Y22453D01*
X310706Y22396D01*
X310802Y22343D01*
X310901Y22292D01*
X311002Y22245D01*
X311104Y22202D01*
X311207Y22162D01*
X311312Y22126D01*
X311418Y22094D01*
X311525Y22065D01*
X311633Y22040D01*
X311742Y22019D01*
X311851Y22002D01*
X311961Y21988D01*
X312072Y21979D01*
X312182Y21973D01*
X312293Y21971D01*
X312404Y21973D01*
X312514Y21979D01*
X312625Y21988D01*
X312735Y22002D01*
X312844Y22019D01*
X312953Y22040D01*
X313061Y22065D01*
X313168Y22094D01*
X313274Y22126D01*
X313379Y22162D01*
X313482Y22202D01*
X313584Y22245D01*
X313685Y22292D01*
X313784Y22343D01*
X313880Y22396D01*
X313975Y22453D01*
X314068Y22514D01*
X314159Y22577D01*
X314248Y22644D01*
X314334Y22714D01*
X314417Y22787D01*
X314499Y22862D01*
X314577Y22940D01*
X314652Y23022D01*
X314725Y23105D01*
X314795Y23191D01*
X314862Y23280D01*
X314925Y23371D01*
X314986Y23464D01*
X315043Y23558D01*
X315096Y23655D01*
X315147Y23754D01*
X315194Y23855D01*
X315237Y23957D01*
X315277Y24060D01*
X315313Y24165D01*
X315345Y24271D01*
X315374Y24378D01*
X315399Y24486D01*
X315420Y24595D01*
X315437Y24704D01*
X315451Y24814D01*
X315460Y24925D01*
X315466Y25035D01*
X315468Y25146D01*
X315468Y33401D01*
X323342Y33401D02*
X323342Y21971D01*
X320167Y33401D02*
X326517Y33401D01*
X331407Y33401D02*
X331407Y21971D01*
X331407Y33401D02*
X334582Y33401D01*
X334693Y33399D01*
X334803Y33393D01*
X334914Y33384D01*
X335024Y33370D01*
X335133Y33353D01*
X335242Y33332D01*
X335350Y33307D01*
X335457Y33278D01*
X335563Y33246D01*
X335668Y33210D01*
X335771Y33170D01*
X335873Y33127D01*
X335974Y33080D01*
X336073Y33029D01*
X336170Y32976D01*
X336264Y32919D01*
X336357Y32858D01*
X336448Y32795D01*
X336537Y32728D01*
X336623Y32658D01*
X336706Y32585D01*
X336788Y32510D01*
X336866Y32432D01*
X336941Y32350D01*
X337014Y32267D01*
X337084Y32181D01*
X337151Y32092D01*
X337214Y32001D01*
X337275Y31908D01*
X337332Y31813D01*
X337385Y31717D01*
X337436Y31618D01*
X337483Y31517D01*
X337526Y31415D01*
X337566Y31312D01*
X337602Y31207D01*
X337634Y31101D01*
X337663Y30994D01*
X337688Y30886D01*
X337709Y30777D01*
X337726Y30668D01*
X337740Y30558D01*
X337749Y30447D01*
X337755Y30337D01*
X337757Y30226D01*
X337755Y30115D01*
X337749Y30005D01*
X337740Y29894D01*
X337726Y29784D01*
X337709Y29675D01*
X337688Y29566D01*
X337663Y29458D01*
X337634Y29351D01*
X337602Y29245D01*
X337566Y29140D01*
X337526Y29037D01*
X337483Y28935D01*
X337436Y28834D01*
X337385Y28735D01*
X337332Y28638D01*
X337275Y28544D01*
X337214Y28451D01*
X337151Y28360D01*
X337084Y28271D01*
X337014Y28185D01*
X336941Y28102D01*
X336866Y28020D01*
X336788Y27942D01*
X336706Y27867D01*
X336623Y27794D01*
X336537Y27724D01*
X336448Y27657D01*
X336357Y27594D01*
X336264Y27533D01*
X336170Y27476D01*
X336073Y27423D01*
X335974Y27372D01*
X335873Y27325D01*
X335771Y27282D01*
X335668Y27242D01*
X335563Y27206D01*
X335457Y27174D01*
X335350Y27145D01*
X335242Y27120D01*
X335133Y27099D01*
X335024Y27082D01*
X334914Y27068D01*
X334803Y27059D01*
X334693Y27053D01*
X334582Y27051D01*
X331407Y27051D01*
X342646Y25146D02*
X342646Y33401D01*
X342646Y25146D02*
X342648Y25035D01*
X342654Y24925D01*
X342663Y24814D01*
X342677Y24704D01*
X342694Y24595D01*
X342715Y24486D01*
X342740Y24378D01*
X342769Y24271D01*
X342801Y24165D01*
X342837Y24060D01*
X342877Y23957D01*
X342920Y23855D01*
X342967Y23754D01*
X343018Y23655D01*
X343071Y23559D01*
X343128Y23464D01*
X343189Y23371D01*
X343252Y23280D01*
X343319Y23191D01*
X343389Y23105D01*
X343462Y23022D01*
X343537Y22940D01*
X343615Y22862D01*
X343697Y22787D01*
X343780Y22714D01*
X343866Y22644D01*
X343955Y22577D01*
X344046Y22514D01*
X344139Y22453D01*
X344234Y22396D01*
X344330Y22343D01*
X344429Y22292D01*
X344530Y22245D01*
X344632Y22202D01*
X344735Y22162D01*
X344840Y22126D01*
X344946Y22094D01*
X345053Y22065D01*
X345161Y22040D01*
X345270Y22019D01*
X345379Y22002D01*
X345489Y21988D01*
X345600Y21979D01*
X345710Y21973D01*
X345821Y21971D01*
X345932Y21973D01*
X346042Y21979D01*
X346153Y21988D01*
X346263Y22002D01*
X346372Y22019D01*
X346481Y22040D01*
X346589Y22065D01*
X346696Y22094D01*
X346802Y22126D01*
X346907Y22162D01*
X347010Y22202D01*
X347112Y22245D01*
X347213Y22292D01*
X347312Y22343D01*
X347408Y22396D01*
X347503Y22453D01*
X347596Y22514D01*
X347687Y22577D01*
X347776Y22644D01*
X347862Y22714D01*
X347945Y22787D01*
X348027Y22862D01*
X348105Y22940D01*
X348180Y23022D01*
X348253Y23105D01*
X348323Y23191D01*
X348390Y23280D01*
X348453Y23371D01*
X348514Y23464D01*
X348571Y23558D01*
X348624Y23655D01*
X348675Y23754D01*
X348722Y23855D01*
X348765Y23957D01*
X348805Y24060D01*
X348841Y24165D01*
X348873Y24271D01*
X348902Y24378D01*
X348927Y24486D01*
X348948Y24595D01*
X348965Y24704D01*
X348979Y24814D01*
X348988Y24925D01*
X348994Y25035D01*
X348996Y25146D01*
X348996Y33401D01*
X356870Y33401D02*
X356870Y21971D01*
X353695Y33401D02*
X360045Y33401D01*
D10*
X100330Y128270D02*
X87630Y128270D01*
X100330Y128270D02*
X100470Y128268D01*
X100610Y128262D01*
X100750Y128253D01*
X100889Y128239D01*
X101028Y128222D01*
X101166Y128201D01*
X101304Y128176D01*
X101441Y128147D01*
X101577Y128115D01*
X101712Y128078D01*
X101846Y128038D01*
X101979Y127995D01*
X102111Y127947D01*
X102242Y127897D01*
X102371Y127842D01*
X102498Y127784D01*
X102624Y127723D01*
X102748Y127658D01*
X102870Y127589D01*
X102990Y127518D01*
X103108Y127443D01*
X103225Y127365D01*
X103339Y127283D01*
X103450Y127199D01*
X103559Y127111D01*
X103666Y127021D01*
X103771Y126927D01*
X103872Y126831D01*
X103971Y126732D01*
X104067Y126631D01*
X104161Y126526D01*
X104251Y126419D01*
X104339Y126310D01*
X104423Y126199D01*
X104505Y126085D01*
X104583Y125968D01*
X104658Y125850D01*
X104729Y125730D01*
X104798Y125608D01*
X104863Y125484D01*
X104924Y125358D01*
X104982Y125231D01*
X105037Y125102D01*
X105087Y124971D01*
X105135Y124839D01*
X105178Y124706D01*
X105218Y124572D01*
X105255Y124437D01*
X105287Y124301D01*
X105316Y124164D01*
X105341Y124026D01*
X105362Y123888D01*
X105379Y123749D01*
X105393Y123610D01*
X105402Y123470D01*
X105408Y123330D01*
X105410Y123190D01*
X87630Y128270D02*
X87490Y128268D01*
X87350Y128262D01*
X87210Y128253D01*
X87071Y128239D01*
X86932Y128222D01*
X86794Y128201D01*
X86656Y128176D01*
X86519Y128147D01*
X86383Y128115D01*
X86248Y128078D01*
X86114Y128038D01*
X85981Y127995D01*
X85849Y127947D01*
X85718Y127897D01*
X85589Y127842D01*
X85462Y127784D01*
X85336Y127723D01*
X85212Y127658D01*
X85090Y127589D01*
X84970Y127518D01*
X84852Y127443D01*
X84735Y127365D01*
X84621Y127283D01*
X84510Y127199D01*
X84401Y127111D01*
X84294Y127021D01*
X84189Y126927D01*
X84088Y126831D01*
X83989Y126732D01*
X83893Y126631D01*
X83799Y126526D01*
X83709Y126419D01*
X83621Y126310D01*
X83537Y126199D01*
X83455Y126085D01*
X83377Y125968D01*
X83302Y125850D01*
X83231Y125730D01*
X83162Y125608D01*
X83097Y125484D01*
X83036Y125358D01*
X82978Y125231D01*
X82923Y125102D01*
X82873Y124971D01*
X82825Y124839D01*
X82782Y124706D01*
X82742Y124572D01*
X82705Y124437D01*
X82673Y124301D01*
X82644Y124164D01*
X82619Y124026D01*
X82598Y123888D01*
X82581Y123749D01*
X82567Y123610D01*
X82558Y123470D01*
X82552Y123330D01*
X82550Y123190D01*
X105410Y123190D02*
X105410Y90170D01*
X100330Y85090D02*
X87630Y85090D01*
X82550Y90170D02*
X82550Y123190D01*
X105410Y90170D02*
X105408Y90030D01*
X105402Y89890D01*
X105393Y89750D01*
X105379Y89611D01*
X105362Y89472D01*
X105341Y89334D01*
X105316Y89196D01*
X105287Y89059D01*
X105255Y88923D01*
X105218Y88788D01*
X105178Y88654D01*
X105135Y88521D01*
X105087Y88389D01*
X105037Y88258D01*
X104982Y88129D01*
X104924Y88002D01*
X104863Y87876D01*
X104798Y87752D01*
X104729Y87630D01*
X104658Y87510D01*
X104583Y87392D01*
X104505Y87275D01*
X104423Y87161D01*
X104339Y87050D01*
X104251Y86941D01*
X104161Y86834D01*
X104067Y86729D01*
X103971Y86628D01*
X103872Y86529D01*
X103771Y86433D01*
X103666Y86339D01*
X103559Y86249D01*
X103450Y86161D01*
X103339Y86077D01*
X103225Y85995D01*
X103108Y85917D01*
X102990Y85842D01*
X102870Y85771D01*
X102748Y85702D01*
X102624Y85637D01*
X102498Y85576D01*
X102371Y85518D01*
X102242Y85463D01*
X102111Y85413D01*
X101979Y85365D01*
X101846Y85322D01*
X101712Y85282D01*
X101577Y85245D01*
X101441Y85213D01*
X101304Y85184D01*
X101166Y85159D01*
X101028Y85138D01*
X100889Y85121D01*
X100750Y85107D01*
X100610Y85098D01*
X100470Y85092D01*
X100330Y85090D01*
X87630Y85090D02*
X87490Y85092D01*
X87350Y85098D01*
X87210Y85107D01*
X87071Y85121D01*
X86932Y85138D01*
X86794Y85159D01*
X86656Y85184D01*
X86519Y85213D01*
X86383Y85245D01*
X86248Y85282D01*
X86114Y85322D01*
X85981Y85365D01*
X85849Y85413D01*
X85718Y85463D01*
X85589Y85518D01*
X85462Y85576D01*
X85336Y85637D01*
X85212Y85702D01*
X85090Y85771D01*
X84970Y85842D01*
X84852Y85917D01*
X84735Y85995D01*
X84621Y86077D01*
X84510Y86161D01*
X84401Y86249D01*
X84294Y86339D01*
X84189Y86433D01*
X84088Y86529D01*
X83989Y86628D01*
X83893Y86729D01*
X83799Y86834D01*
X83709Y86941D01*
X83621Y87050D01*
X83537Y87161D01*
X83455Y87275D01*
X83377Y87392D01*
X83302Y87510D01*
X83231Y87630D01*
X83162Y87752D01*
X83097Y87876D01*
X83036Y88002D01*
X82978Y88129D01*
X82923Y88258D01*
X82873Y88389D01*
X82825Y88521D01*
X82782Y88654D01*
X82742Y88788D01*
X82705Y88923D01*
X82673Y89059D01*
X82644Y89196D01*
X82619Y89334D01*
X82598Y89472D01*
X82581Y89611D01*
X82567Y89750D01*
X82558Y89890D01*
X82552Y90030D01*
X82550Y90170D01*
D13*
X86360Y109728D02*
X101600Y109728D01*
X101600Y103378D02*
X86360Y103378D01*
D12*
X120015Y110453D02*
X120015Y112993D01*
X120015Y110453D02*
X120013Y110353D01*
X120007Y110254D01*
X119997Y110154D01*
X119984Y110056D01*
X119966Y109957D01*
X119945Y109860D01*
X119920Y109764D01*
X119891Y109668D01*
X119858Y109574D01*
X119822Y109481D01*
X119782Y109390D01*
X119738Y109300D01*
X119691Y109212D01*
X119641Y109126D01*
X119587Y109042D01*
X119530Y108960D01*
X119470Y108881D01*
X119406Y108803D01*
X119340Y108729D01*
X119271Y108657D01*
X119199Y108588D01*
X119125Y108522D01*
X119047Y108458D01*
X118968Y108398D01*
X118886Y108341D01*
X118802Y108287D01*
X118716Y108237D01*
X118628Y108190D01*
X118538Y108146D01*
X118447Y108106D01*
X118354Y108070D01*
X118260Y108037D01*
X118164Y108008D01*
X118068Y107983D01*
X117971Y107962D01*
X117872Y107944D01*
X117774Y107931D01*
X117674Y107921D01*
X117575Y107915D01*
X117475Y107913D01*
X111125Y107913D01*
X111025Y107915D01*
X110926Y107921D01*
X110826Y107931D01*
X110728Y107944D01*
X110629Y107962D01*
X110532Y107983D01*
X110436Y108008D01*
X110340Y108037D01*
X110246Y108070D01*
X110153Y108106D01*
X110062Y108146D01*
X109972Y108190D01*
X109884Y108237D01*
X109798Y108287D01*
X109714Y108341D01*
X109632Y108398D01*
X109553Y108458D01*
X109475Y108522D01*
X109401Y108588D01*
X109329Y108657D01*
X109260Y108729D01*
X109194Y108803D01*
X109130Y108881D01*
X109070Y108960D01*
X109013Y109042D01*
X108959Y109126D01*
X108909Y109212D01*
X108862Y109300D01*
X108818Y109390D01*
X108778Y109481D01*
X108742Y109574D01*
X108709Y109668D01*
X108680Y109764D01*
X108655Y109860D01*
X108634Y109957D01*
X108616Y110056D01*
X108603Y110154D01*
X108593Y110254D01*
X108587Y110353D01*
X108585Y110453D01*
X108585Y112993D01*
X111125Y117475D02*
X108585Y120650D01*
X120015Y120650D01*
X120015Y117475D02*
X120015Y123825D01*
D10*
X165100Y128270D02*
X165100Y85090D01*
X139700Y85090D02*
X139700Y128270D01*
X142240Y82550D02*
X162560Y82550D01*
X162560Y130810D02*
X142240Y130810D01*
X165100Y85090D02*
X165098Y84990D01*
X165092Y84891D01*
X165082Y84791D01*
X165069Y84693D01*
X165051Y84594D01*
X165030Y84497D01*
X165005Y84401D01*
X164976Y84305D01*
X164943Y84211D01*
X164907Y84118D01*
X164867Y84027D01*
X164823Y83937D01*
X164776Y83849D01*
X164726Y83763D01*
X164672Y83679D01*
X164615Y83597D01*
X164555Y83518D01*
X164491Y83440D01*
X164425Y83366D01*
X164356Y83294D01*
X164284Y83225D01*
X164210Y83159D01*
X164132Y83095D01*
X164053Y83035D01*
X163971Y82978D01*
X163887Y82924D01*
X163801Y82874D01*
X163713Y82827D01*
X163623Y82783D01*
X163532Y82743D01*
X163439Y82707D01*
X163345Y82674D01*
X163249Y82645D01*
X163153Y82620D01*
X163056Y82599D01*
X162957Y82581D01*
X162859Y82568D01*
X162759Y82558D01*
X162660Y82552D01*
X162560Y82550D01*
X165100Y128270D02*
X165098Y128370D01*
X165092Y128469D01*
X165082Y128569D01*
X165069Y128667D01*
X165051Y128766D01*
X165030Y128863D01*
X165005Y128959D01*
X164976Y129055D01*
X164943Y129149D01*
X164907Y129242D01*
X164867Y129333D01*
X164823Y129423D01*
X164776Y129511D01*
X164726Y129597D01*
X164672Y129681D01*
X164615Y129763D01*
X164555Y129842D01*
X164491Y129920D01*
X164425Y129994D01*
X164356Y130066D01*
X164284Y130135D01*
X164210Y130201D01*
X164132Y130265D01*
X164053Y130325D01*
X163971Y130382D01*
X163887Y130436D01*
X163801Y130486D01*
X163713Y130533D01*
X163623Y130577D01*
X163532Y130617D01*
X163439Y130653D01*
X163345Y130686D01*
X163249Y130715D01*
X163153Y130740D01*
X163056Y130761D01*
X162957Y130779D01*
X162859Y130792D01*
X162759Y130802D01*
X162660Y130808D01*
X162560Y130810D01*
X139700Y85090D02*
X139702Y84990D01*
X139708Y84891D01*
X139718Y84791D01*
X139731Y84693D01*
X139749Y84594D01*
X139770Y84497D01*
X139795Y84401D01*
X139824Y84305D01*
X139857Y84211D01*
X139893Y84118D01*
X139933Y84027D01*
X139977Y83937D01*
X140024Y83849D01*
X140074Y83763D01*
X140128Y83679D01*
X140185Y83597D01*
X140245Y83518D01*
X140309Y83440D01*
X140375Y83366D01*
X140444Y83294D01*
X140516Y83225D01*
X140590Y83159D01*
X140668Y83095D01*
X140747Y83035D01*
X140829Y82978D01*
X140913Y82924D01*
X140999Y82874D01*
X141087Y82827D01*
X141177Y82783D01*
X141268Y82743D01*
X141361Y82707D01*
X141455Y82674D01*
X141551Y82645D01*
X141647Y82620D01*
X141744Y82599D01*
X141843Y82581D01*
X141941Y82568D01*
X142041Y82558D01*
X142140Y82552D01*
X142240Y82550D01*
X139700Y128270D02*
X139702Y128370D01*
X139708Y128469D01*
X139718Y128569D01*
X139731Y128667D01*
X139749Y128766D01*
X139770Y128863D01*
X139795Y128959D01*
X139824Y129055D01*
X139857Y129149D01*
X139893Y129242D01*
X139933Y129333D01*
X139977Y129423D01*
X140024Y129511D01*
X140074Y129597D01*
X140128Y129681D01*
X140185Y129763D01*
X140245Y129842D01*
X140309Y129920D01*
X140375Y129994D01*
X140444Y130066D01*
X140516Y130135D01*
X140590Y130201D01*
X140668Y130265D01*
X140747Y130325D01*
X140829Y130382D01*
X140913Y130436D01*
X140999Y130486D01*
X141087Y130533D01*
X141177Y130577D01*
X141268Y130617D01*
X141361Y130653D01*
X141455Y130686D01*
X141551Y130715D01*
X141647Y130740D01*
X141744Y130761D01*
X141843Y130779D01*
X141941Y130792D01*
X142041Y130802D01*
X142140Y130808D01*
X142240Y130810D01*
X152400Y104140D02*
X152400Y102870D01*
D14*
X152400Y104140D02*
X160020Y104140D01*
X152400Y104140D02*
X144780Y104140D01*
X152400Y109220D02*
X160020Y109220D01*
X152400Y109220D02*
X144780Y109220D01*
D10*
X152400Y109220D02*
X152400Y110490D01*
D12*
X179705Y115533D02*
X179705Y118073D01*
X179705Y115533D02*
X179703Y115433D01*
X179697Y115334D01*
X179687Y115234D01*
X179674Y115136D01*
X179656Y115037D01*
X179635Y114940D01*
X179610Y114844D01*
X179581Y114748D01*
X179548Y114654D01*
X179512Y114561D01*
X179472Y114470D01*
X179428Y114380D01*
X179381Y114292D01*
X179331Y114206D01*
X179277Y114122D01*
X179220Y114040D01*
X179160Y113961D01*
X179096Y113883D01*
X179030Y113809D01*
X178961Y113737D01*
X178889Y113668D01*
X178815Y113602D01*
X178737Y113538D01*
X178658Y113478D01*
X178576Y113421D01*
X178492Y113367D01*
X178406Y113317D01*
X178318Y113270D01*
X178228Y113226D01*
X178137Y113186D01*
X178044Y113150D01*
X177950Y113117D01*
X177854Y113088D01*
X177758Y113063D01*
X177661Y113042D01*
X177562Y113024D01*
X177464Y113011D01*
X177364Y113001D01*
X177265Y112995D01*
X177165Y112993D01*
X170815Y112993D01*
X170715Y112995D01*
X170616Y113001D01*
X170516Y113011D01*
X170418Y113024D01*
X170319Y113042D01*
X170222Y113063D01*
X170126Y113088D01*
X170030Y113117D01*
X169936Y113150D01*
X169843Y113186D01*
X169752Y113226D01*
X169662Y113270D01*
X169574Y113317D01*
X169488Y113367D01*
X169404Y113421D01*
X169322Y113478D01*
X169243Y113538D01*
X169165Y113602D01*
X169091Y113668D01*
X169019Y113737D01*
X168950Y113809D01*
X168884Y113883D01*
X168820Y113961D01*
X168760Y114040D01*
X168703Y114122D01*
X168649Y114206D01*
X168599Y114292D01*
X168552Y114380D01*
X168508Y114470D01*
X168468Y114561D01*
X168432Y114654D01*
X168399Y114748D01*
X168370Y114844D01*
X168345Y114940D01*
X168324Y115037D01*
X168306Y115136D01*
X168293Y115234D01*
X168283Y115334D01*
X168277Y115433D01*
X168275Y115533D01*
X168275Y118073D01*
X168275Y126048D02*
X168277Y126152D01*
X168283Y126257D01*
X168292Y126361D01*
X168305Y126464D01*
X168323Y126567D01*
X168343Y126669D01*
X168368Y126771D01*
X168396Y126871D01*
X168428Y126971D01*
X168464Y127069D01*
X168503Y127166D01*
X168545Y127261D01*
X168591Y127355D01*
X168641Y127447D01*
X168693Y127537D01*
X168749Y127625D01*
X168809Y127711D01*
X168871Y127795D01*
X168936Y127876D01*
X169004Y127955D01*
X169076Y128032D01*
X169149Y128105D01*
X169226Y128177D01*
X169305Y128245D01*
X169386Y128310D01*
X169470Y128372D01*
X169556Y128432D01*
X169644Y128488D01*
X169734Y128540D01*
X169826Y128590D01*
X169920Y128636D01*
X170015Y128678D01*
X170112Y128717D01*
X170210Y128753D01*
X170310Y128785D01*
X170410Y128813D01*
X170512Y128838D01*
X170614Y128858D01*
X170717Y128876D01*
X170820Y128889D01*
X170924Y128898D01*
X171029Y128904D01*
X171133Y128906D01*
X168275Y126048D02*
X168277Y125930D01*
X168283Y125811D01*
X168292Y125693D01*
X168305Y125576D01*
X168323Y125459D01*
X168343Y125342D01*
X168368Y125226D01*
X168396Y125111D01*
X168429Y124998D01*
X168464Y124885D01*
X168504Y124773D01*
X168546Y124663D01*
X168593Y124554D01*
X168643Y124446D01*
X168696Y124341D01*
X168753Y124237D01*
X168813Y124135D01*
X168876Y124035D01*
X168943Y123937D01*
X169012Y123841D01*
X169085Y123748D01*
X169161Y123657D01*
X169239Y123568D01*
X169321Y123482D01*
X169405Y123399D01*
X169491Y123318D01*
X169581Y123241D01*
X169672Y123166D01*
X169766Y123094D01*
X169863Y123025D01*
X169961Y122960D01*
X170062Y122897D01*
X170165Y122838D01*
X170269Y122782D01*
X170375Y122730D01*
X170483Y122681D01*
X170592Y122636D01*
X170703Y122594D01*
X170815Y122556D01*
X173355Y127953D02*
X173280Y128029D01*
X173201Y128104D01*
X173120Y128175D01*
X173036Y128244D01*
X172950Y128309D01*
X172862Y128371D01*
X172772Y128431D01*
X172680Y128487D01*
X172585Y128540D01*
X172489Y128589D01*
X172391Y128635D01*
X172292Y128678D01*
X172191Y128717D01*
X172089Y128752D01*
X171986Y128784D01*
X171882Y128812D01*
X171777Y128837D01*
X171670Y128858D01*
X171564Y128875D01*
X171457Y128888D01*
X171349Y128897D01*
X171241Y128903D01*
X171133Y128905D01*
X173355Y127953D02*
X179705Y122555D01*
X179705Y128905D01*
D10*
X242570Y53340D02*
X285750Y53340D01*
X285750Y78740D02*
X242570Y78740D01*
X240030Y76200D02*
X240030Y55880D01*
X288290Y55880D02*
X288290Y76200D01*
X242570Y53340D02*
X242470Y53342D01*
X242371Y53348D01*
X242271Y53358D01*
X242173Y53371D01*
X242074Y53389D01*
X241977Y53410D01*
X241881Y53435D01*
X241785Y53464D01*
X241691Y53497D01*
X241598Y53533D01*
X241507Y53573D01*
X241417Y53617D01*
X241329Y53664D01*
X241243Y53714D01*
X241159Y53768D01*
X241077Y53825D01*
X240998Y53885D01*
X240920Y53949D01*
X240846Y54015D01*
X240774Y54084D01*
X240705Y54156D01*
X240639Y54230D01*
X240575Y54308D01*
X240515Y54387D01*
X240458Y54469D01*
X240404Y54553D01*
X240354Y54639D01*
X240307Y54727D01*
X240263Y54817D01*
X240223Y54908D01*
X240187Y55001D01*
X240154Y55095D01*
X240125Y55191D01*
X240100Y55287D01*
X240079Y55384D01*
X240061Y55483D01*
X240048Y55581D01*
X240038Y55681D01*
X240032Y55780D01*
X240030Y55880D01*
X285750Y53340D02*
X285850Y53342D01*
X285949Y53348D01*
X286049Y53358D01*
X286147Y53371D01*
X286246Y53389D01*
X286343Y53410D01*
X286439Y53435D01*
X286535Y53464D01*
X286629Y53497D01*
X286722Y53533D01*
X286813Y53573D01*
X286903Y53617D01*
X286991Y53664D01*
X287077Y53714D01*
X287161Y53768D01*
X287243Y53825D01*
X287322Y53885D01*
X287400Y53949D01*
X287474Y54015D01*
X287546Y54084D01*
X287615Y54156D01*
X287681Y54230D01*
X287745Y54308D01*
X287805Y54387D01*
X287862Y54469D01*
X287916Y54553D01*
X287966Y54639D01*
X288013Y54727D01*
X288057Y54817D01*
X288097Y54908D01*
X288133Y55001D01*
X288166Y55095D01*
X288195Y55191D01*
X288220Y55287D01*
X288241Y55384D01*
X288259Y55483D01*
X288272Y55581D01*
X288282Y55681D01*
X288288Y55780D01*
X288290Y55880D01*
X242570Y78740D02*
X242470Y78738D01*
X242371Y78732D01*
X242271Y78722D01*
X242173Y78709D01*
X242074Y78691D01*
X241977Y78670D01*
X241881Y78645D01*
X241785Y78616D01*
X241691Y78583D01*
X241598Y78547D01*
X241507Y78507D01*
X241417Y78463D01*
X241329Y78416D01*
X241243Y78366D01*
X241159Y78312D01*
X241077Y78255D01*
X240998Y78195D01*
X240920Y78131D01*
X240846Y78065D01*
X240774Y77996D01*
X240705Y77924D01*
X240639Y77850D01*
X240575Y77772D01*
X240515Y77693D01*
X240458Y77611D01*
X240404Y77527D01*
X240354Y77441D01*
X240307Y77353D01*
X240263Y77263D01*
X240223Y77172D01*
X240187Y77079D01*
X240154Y76985D01*
X240125Y76889D01*
X240100Y76793D01*
X240079Y76696D01*
X240061Y76597D01*
X240048Y76499D01*
X240038Y76399D01*
X240032Y76300D01*
X240030Y76200D01*
X285750Y78740D02*
X285850Y78738D01*
X285949Y78732D01*
X286049Y78722D01*
X286147Y78709D01*
X286246Y78691D01*
X286343Y78670D01*
X286439Y78645D01*
X286535Y78616D01*
X286629Y78583D01*
X286722Y78547D01*
X286813Y78507D01*
X286903Y78463D01*
X286991Y78416D01*
X287077Y78366D01*
X287161Y78312D01*
X287243Y78255D01*
X287322Y78195D01*
X287400Y78131D01*
X287474Y78065D01*
X287546Y77996D01*
X287615Y77924D01*
X287681Y77850D01*
X287745Y77772D01*
X287805Y77693D01*
X287862Y77611D01*
X287916Y77527D01*
X287966Y77441D01*
X288013Y77353D01*
X288057Y77263D01*
X288097Y77172D01*
X288133Y77079D01*
X288166Y76985D01*
X288195Y76889D01*
X288220Y76793D01*
X288241Y76696D01*
X288259Y76597D01*
X288272Y76499D01*
X288282Y76399D01*
X288288Y76300D01*
X288290Y76200D01*
X261620Y66040D02*
X260350Y66040D01*
D14*
X261620Y66040D02*
X261620Y58420D01*
X261620Y66040D02*
X261620Y73660D01*
X266700Y66040D02*
X266700Y58420D01*
X266700Y66040D02*
X266700Y73660D01*
D10*
X266700Y66040D02*
X267970Y66040D01*
D12*
X273013Y38735D02*
X275553Y38735D01*
X273013Y38735D02*
X272913Y38737D01*
X272814Y38743D01*
X272714Y38753D01*
X272616Y38766D01*
X272517Y38784D01*
X272420Y38805D01*
X272324Y38830D01*
X272228Y38859D01*
X272134Y38892D01*
X272041Y38928D01*
X271950Y38968D01*
X271860Y39012D01*
X271772Y39059D01*
X271686Y39109D01*
X271602Y39163D01*
X271520Y39220D01*
X271441Y39280D01*
X271363Y39344D01*
X271289Y39410D01*
X271217Y39479D01*
X271148Y39551D01*
X271082Y39625D01*
X271018Y39703D01*
X270958Y39782D01*
X270901Y39864D01*
X270847Y39948D01*
X270797Y40034D01*
X270750Y40122D01*
X270706Y40212D01*
X270666Y40303D01*
X270630Y40396D01*
X270597Y40490D01*
X270568Y40586D01*
X270543Y40682D01*
X270522Y40779D01*
X270504Y40878D01*
X270491Y40976D01*
X270481Y41076D01*
X270475Y41175D01*
X270473Y41275D01*
X270473Y47625D01*
X270475Y47725D01*
X270481Y47824D01*
X270491Y47924D01*
X270504Y48022D01*
X270522Y48121D01*
X270543Y48218D01*
X270568Y48314D01*
X270597Y48410D01*
X270630Y48504D01*
X270666Y48597D01*
X270706Y48688D01*
X270750Y48778D01*
X270797Y48866D01*
X270847Y48952D01*
X270901Y49036D01*
X270958Y49118D01*
X271018Y49197D01*
X271082Y49275D01*
X271148Y49349D01*
X271217Y49421D01*
X271289Y49490D01*
X271363Y49556D01*
X271441Y49620D01*
X271520Y49680D01*
X271602Y49737D01*
X271686Y49791D01*
X271772Y49841D01*
X271860Y49888D01*
X271950Y49932D01*
X272041Y49972D01*
X272134Y50008D01*
X272228Y50041D01*
X272324Y50070D01*
X272420Y50095D01*
X272517Y50116D01*
X272616Y50134D01*
X272714Y50147D01*
X272814Y50157D01*
X272913Y50163D01*
X273013Y50165D01*
X275553Y50165D01*
X280035Y38735D02*
X283210Y38735D01*
X283321Y38737D01*
X283431Y38743D01*
X283542Y38752D01*
X283652Y38766D01*
X283761Y38783D01*
X283870Y38804D01*
X283978Y38829D01*
X284085Y38858D01*
X284191Y38890D01*
X284296Y38926D01*
X284399Y38966D01*
X284501Y39009D01*
X284602Y39056D01*
X284701Y39107D01*
X284798Y39160D01*
X284892Y39217D01*
X284985Y39278D01*
X285076Y39341D01*
X285165Y39408D01*
X285251Y39478D01*
X285334Y39551D01*
X285416Y39626D01*
X285494Y39704D01*
X285569Y39786D01*
X285642Y39869D01*
X285712Y39955D01*
X285779Y40044D01*
X285842Y40135D01*
X285903Y40228D01*
X285960Y40322D01*
X286013Y40419D01*
X286064Y40518D01*
X286111Y40619D01*
X286154Y40721D01*
X286194Y40824D01*
X286230Y40929D01*
X286262Y41035D01*
X286291Y41142D01*
X286316Y41250D01*
X286337Y41359D01*
X286354Y41468D01*
X286368Y41578D01*
X286377Y41689D01*
X286383Y41799D01*
X286385Y41910D01*
X286383Y42021D01*
X286377Y42131D01*
X286368Y42242D01*
X286354Y42352D01*
X286337Y42461D01*
X286316Y42570D01*
X286291Y42678D01*
X286262Y42785D01*
X286230Y42891D01*
X286194Y42996D01*
X286154Y43099D01*
X286111Y43201D01*
X286064Y43302D01*
X286013Y43401D01*
X285960Y43497D01*
X285903Y43592D01*
X285842Y43685D01*
X285779Y43776D01*
X285712Y43865D01*
X285642Y43951D01*
X285569Y44034D01*
X285494Y44116D01*
X285416Y44194D01*
X285334Y44269D01*
X285251Y44342D01*
X285165Y44412D01*
X285076Y44479D01*
X284985Y44542D01*
X284892Y44603D01*
X284798Y44660D01*
X284701Y44713D01*
X284602Y44764D01*
X284501Y44811D01*
X284399Y44854D01*
X284296Y44894D01*
X284191Y44930D01*
X284085Y44962D01*
X283978Y44991D01*
X283870Y45016D01*
X283761Y45037D01*
X283652Y45054D01*
X283542Y45068D01*
X283431Y45077D01*
X283321Y45083D01*
X283210Y45085D01*
X283845Y50165D02*
X280035Y50165D01*
X283845Y50165D02*
X283945Y50163D01*
X284044Y50157D01*
X284144Y50147D01*
X284242Y50134D01*
X284341Y50116D01*
X284438Y50095D01*
X284534Y50070D01*
X284630Y50041D01*
X284724Y50008D01*
X284817Y49972D01*
X284908Y49932D01*
X284998Y49888D01*
X285086Y49841D01*
X285172Y49791D01*
X285256Y49737D01*
X285338Y49680D01*
X285417Y49620D01*
X285495Y49556D01*
X285569Y49490D01*
X285641Y49421D01*
X285710Y49349D01*
X285776Y49275D01*
X285840Y49197D01*
X285900Y49118D01*
X285957Y49036D01*
X286011Y48952D01*
X286061Y48866D01*
X286108Y48778D01*
X286152Y48688D01*
X286192Y48597D01*
X286228Y48504D01*
X286261Y48410D01*
X286290Y48314D01*
X286315Y48218D01*
X286336Y48121D01*
X286354Y48022D01*
X286367Y47924D01*
X286377Y47824D01*
X286383Y47725D01*
X286385Y47625D01*
X286383Y47525D01*
X286377Y47426D01*
X286367Y47326D01*
X286354Y47228D01*
X286336Y47129D01*
X286315Y47032D01*
X286290Y46936D01*
X286261Y46840D01*
X286228Y46746D01*
X286192Y46653D01*
X286152Y46562D01*
X286108Y46472D01*
X286061Y46384D01*
X286011Y46298D01*
X285957Y46214D01*
X285900Y46132D01*
X285840Y46053D01*
X285776Y45975D01*
X285710Y45901D01*
X285641Y45829D01*
X285569Y45760D01*
X285495Y45694D01*
X285417Y45630D01*
X285338Y45570D01*
X285256Y45513D01*
X285172Y45459D01*
X285086Y45409D01*
X284998Y45362D01*
X284908Y45318D01*
X284817Y45278D01*
X284724Y45242D01*
X284630Y45209D01*
X284534Y45180D01*
X284438Y45155D01*
X284341Y45134D01*
X284242Y45116D01*
X284144Y45103D01*
X284044Y45093D01*
X283945Y45087D01*
X283845Y45085D01*
X281305Y45085D01*
D10*
X144780Y170180D02*
X104140Y170180D01*
X104140Y144780D01*
X144780Y144780D01*
X144780Y170180D01*
X130810Y157480D02*
X124460Y157480D01*
X114300Y151130D02*
X114300Y163830D01*
X124460Y157480D01*
X109220Y157480D01*
X114300Y151130D02*
X124460Y157480D01*
X124460Y151130D01*
X124460Y157480D02*
X124460Y163830D01*
D15*
X138430Y157480D03*
D16*
X94615Y157480D03*
X154305Y157480D03*
D12*
X85344Y150495D02*
X85344Y139065D01*
X85344Y150495D02*
X88519Y150495D01*
X88630Y150493D01*
X88740Y150487D01*
X88851Y150478D01*
X88961Y150464D01*
X89070Y150447D01*
X89179Y150426D01*
X89287Y150401D01*
X89394Y150372D01*
X89500Y150340D01*
X89605Y150304D01*
X89708Y150264D01*
X89810Y150221D01*
X89911Y150174D01*
X90010Y150123D01*
X90107Y150070D01*
X90201Y150013D01*
X90294Y149952D01*
X90385Y149889D01*
X90474Y149822D01*
X90560Y149752D01*
X90643Y149679D01*
X90725Y149604D01*
X90803Y149526D01*
X90878Y149444D01*
X90951Y149361D01*
X91021Y149275D01*
X91088Y149186D01*
X91151Y149095D01*
X91212Y149002D01*
X91269Y148908D01*
X91322Y148811D01*
X91373Y148712D01*
X91420Y148611D01*
X91463Y148509D01*
X91503Y148406D01*
X91539Y148301D01*
X91571Y148195D01*
X91600Y148088D01*
X91625Y147980D01*
X91646Y147871D01*
X91663Y147762D01*
X91677Y147652D01*
X91686Y147541D01*
X91692Y147431D01*
X91694Y147320D01*
X91694Y142240D01*
X91692Y142129D01*
X91686Y142019D01*
X91677Y141908D01*
X91663Y141798D01*
X91646Y141689D01*
X91625Y141580D01*
X91600Y141472D01*
X91571Y141365D01*
X91539Y141259D01*
X91503Y141154D01*
X91463Y141051D01*
X91420Y140949D01*
X91373Y140848D01*
X91322Y140749D01*
X91269Y140652D01*
X91212Y140558D01*
X91151Y140465D01*
X91088Y140374D01*
X91021Y140285D01*
X90951Y140199D01*
X90878Y140116D01*
X90803Y140034D01*
X90725Y139956D01*
X90643Y139881D01*
X90560Y139808D01*
X90474Y139738D01*
X90385Y139671D01*
X90294Y139608D01*
X90201Y139547D01*
X90106Y139490D01*
X90010Y139437D01*
X89911Y139386D01*
X89810Y139339D01*
X89708Y139296D01*
X89605Y139256D01*
X89500Y139220D01*
X89394Y139188D01*
X89287Y139159D01*
X89179Y139134D01*
X89070Y139113D01*
X88961Y139096D01*
X88851Y139082D01*
X88740Y139073D01*
X88630Y139067D01*
X88519Y139065D01*
X85344Y139065D01*
X97155Y147955D02*
X100330Y150495D01*
X100330Y139065D01*
X97155Y139065D02*
X103505Y139065D01*
D10*
X198120Y127000D02*
X198120Y86360D01*
X223520Y86360D01*
X223520Y127000D01*
X198120Y127000D01*
X210820Y113030D02*
X210820Y106680D01*
X217170Y96520D02*
X204470Y96520D01*
X210820Y106680D01*
X210820Y91440D01*
X217170Y96520D02*
X210820Y106680D01*
X217170Y106680D01*
X210820Y106680D02*
X204470Y106680D01*
D17*
X210820Y120650D03*
D18*
X210820Y76835D03*
X210820Y136525D03*
D12*
X227965Y108204D02*
X239395Y108204D01*
X227965Y108204D02*
X227965Y111379D01*
X227967Y111490D01*
X227973Y111600D01*
X227982Y111711D01*
X227996Y111821D01*
X228013Y111930D01*
X228034Y112039D01*
X228059Y112147D01*
X228088Y112254D01*
X228120Y112360D01*
X228156Y112465D01*
X228196Y112568D01*
X228239Y112670D01*
X228286Y112771D01*
X228337Y112870D01*
X228390Y112967D01*
X228447Y113061D01*
X228508Y113154D01*
X228571Y113245D01*
X228638Y113334D01*
X228708Y113420D01*
X228781Y113503D01*
X228856Y113585D01*
X228934Y113663D01*
X229016Y113738D01*
X229099Y113811D01*
X229185Y113881D01*
X229274Y113948D01*
X229365Y114011D01*
X229458Y114072D01*
X229553Y114129D01*
X229649Y114182D01*
X229748Y114233D01*
X229849Y114280D01*
X229951Y114323D01*
X230054Y114363D01*
X230159Y114399D01*
X230265Y114431D01*
X230372Y114460D01*
X230480Y114485D01*
X230589Y114506D01*
X230698Y114523D01*
X230808Y114537D01*
X230919Y114546D01*
X231029Y114552D01*
X231140Y114554D01*
X236220Y114554D01*
X236331Y114552D01*
X236441Y114546D01*
X236552Y114537D01*
X236662Y114523D01*
X236771Y114506D01*
X236880Y114485D01*
X236988Y114460D01*
X237095Y114431D01*
X237201Y114399D01*
X237306Y114363D01*
X237409Y114323D01*
X237511Y114280D01*
X237612Y114233D01*
X237711Y114182D01*
X237808Y114129D01*
X237902Y114072D01*
X237995Y114011D01*
X238086Y113948D01*
X238175Y113881D01*
X238261Y113811D01*
X238344Y113738D01*
X238426Y113663D01*
X238504Y113585D01*
X238579Y113503D01*
X238652Y113420D01*
X238722Y113334D01*
X238789Y113245D01*
X238852Y113154D01*
X238913Y113061D01*
X238970Y112967D01*
X239023Y112870D01*
X239074Y112771D01*
X239121Y112670D01*
X239164Y112568D01*
X239204Y112465D01*
X239240Y112360D01*
X239272Y112254D01*
X239301Y112147D01*
X239326Y112039D01*
X239347Y111930D01*
X239364Y111821D01*
X239378Y111711D01*
X239387Y111600D01*
X239393Y111490D01*
X239395Y111379D01*
X239395Y108204D01*
X227965Y123508D02*
X227967Y123612D01*
X227973Y123717D01*
X227982Y123821D01*
X227995Y123924D01*
X228013Y124027D01*
X228033Y124129D01*
X228058Y124231D01*
X228086Y124331D01*
X228118Y124431D01*
X228154Y124529D01*
X228193Y124626D01*
X228235Y124721D01*
X228281Y124815D01*
X228331Y124907D01*
X228383Y124997D01*
X228439Y125085D01*
X228499Y125171D01*
X228561Y125255D01*
X228626Y125336D01*
X228694Y125415D01*
X228766Y125492D01*
X228839Y125565D01*
X228916Y125637D01*
X228995Y125705D01*
X229076Y125770D01*
X229160Y125832D01*
X229246Y125892D01*
X229334Y125948D01*
X229424Y126000D01*
X229516Y126050D01*
X229610Y126096D01*
X229705Y126138D01*
X229802Y126177D01*
X229900Y126213D01*
X230000Y126245D01*
X230100Y126273D01*
X230202Y126298D01*
X230304Y126318D01*
X230407Y126336D01*
X230510Y126349D01*
X230614Y126358D01*
X230719Y126364D01*
X230823Y126366D01*
X227965Y123508D02*
X227967Y123390D01*
X227973Y123271D01*
X227982Y123153D01*
X227995Y123036D01*
X228013Y122919D01*
X228033Y122802D01*
X228058Y122686D01*
X228086Y122571D01*
X228119Y122458D01*
X228154Y122345D01*
X228194Y122233D01*
X228236Y122123D01*
X228283Y122014D01*
X228333Y121906D01*
X228386Y121801D01*
X228443Y121697D01*
X228503Y121595D01*
X228566Y121495D01*
X228633Y121397D01*
X228702Y121301D01*
X228775Y121208D01*
X228851Y121117D01*
X228929Y121028D01*
X229011Y120942D01*
X229095Y120859D01*
X229181Y120778D01*
X229271Y120701D01*
X229362Y120626D01*
X229456Y120554D01*
X229553Y120485D01*
X229651Y120420D01*
X229752Y120357D01*
X229855Y120298D01*
X229959Y120242D01*
X230065Y120190D01*
X230173Y120141D01*
X230282Y120096D01*
X230393Y120054D01*
X230505Y120016D01*
X233045Y125413D02*
X232970Y125489D01*
X232891Y125564D01*
X232810Y125635D01*
X232726Y125704D01*
X232640Y125769D01*
X232552Y125831D01*
X232462Y125891D01*
X232370Y125947D01*
X232275Y126000D01*
X232179Y126049D01*
X232081Y126095D01*
X231982Y126138D01*
X231881Y126177D01*
X231779Y126212D01*
X231676Y126244D01*
X231572Y126272D01*
X231467Y126297D01*
X231360Y126318D01*
X231254Y126335D01*
X231147Y126348D01*
X231039Y126357D01*
X230931Y126363D01*
X230823Y126365D01*
X233045Y125413D02*
X239395Y120015D01*
X239395Y126365D01*
D10*
X142240Y60960D02*
X101600Y60960D01*
X101600Y35560D01*
X142240Y35560D01*
X142240Y60960D01*
X128270Y48260D02*
X121920Y48260D01*
X111760Y41910D02*
X111760Y54610D01*
X121920Y48260D01*
X106680Y48260D01*
X111760Y41910D02*
X121920Y48260D01*
X121920Y41910D01*
X121920Y48260D02*
X121920Y54610D01*
D15*
X135890Y48260D03*
D16*
X92075Y48260D03*
X151765Y48260D03*
D12*
X77724Y41275D02*
X77724Y29845D01*
X77724Y41275D02*
X80899Y41275D01*
X81010Y41273D01*
X81120Y41267D01*
X81231Y41258D01*
X81341Y41244D01*
X81450Y41227D01*
X81559Y41206D01*
X81667Y41181D01*
X81774Y41152D01*
X81880Y41120D01*
X81985Y41084D01*
X82088Y41044D01*
X82190Y41001D01*
X82291Y40954D01*
X82390Y40903D01*
X82487Y40850D01*
X82581Y40793D01*
X82674Y40732D01*
X82765Y40669D01*
X82854Y40602D01*
X82940Y40532D01*
X83023Y40459D01*
X83105Y40384D01*
X83183Y40306D01*
X83258Y40224D01*
X83331Y40141D01*
X83401Y40055D01*
X83468Y39966D01*
X83531Y39875D01*
X83592Y39782D01*
X83649Y39688D01*
X83702Y39591D01*
X83753Y39492D01*
X83800Y39391D01*
X83843Y39289D01*
X83883Y39186D01*
X83919Y39081D01*
X83951Y38975D01*
X83980Y38868D01*
X84005Y38760D01*
X84026Y38651D01*
X84043Y38542D01*
X84057Y38432D01*
X84066Y38321D01*
X84072Y38211D01*
X84074Y38100D01*
X84074Y33020D01*
X84072Y32909D01*
X84066Y32799D01*
X84057Y32688D01*
X84043Y32578D01*
X84026Y32469D01*
X84005Y32360D01*
X83980Y32252D01*
X83951Y32145D01*
X83919Y32039D01*
X83883Y31934D01*
X83843Y31831D01*
X83800Y31729D01*
X83753Y31628D01*
X83702Y31529D01*
X83649Y31432D01*
X83592Y31338D01*
X83531Y31245D01*
X83468Y31154D01*
X83401Y31065D01*
X83331Y30979D01*
X83258Y30896D01*
X83183Y30814D01*
X83105Y30736D01*
X83023Y30661D01*
X82940Y30588D01*
X82854Y30518D01*
X82765Y30451D01*
X82674Y30388D01*
X82581Y30327D01*
X82486Y30270D01*
X82390Y30217D01*
X82291Y30166D01*
X82190Y30119D01*
X82088Y30076D01*
X81985Y30036D01*
X81880Y30000D01*
X81774Y29968D01*
X81667Y29939D01*
X81559Y29914D01*
X81450Y29893D01*
X81341Y29876D01*
X81231Y29862D01*
X81120Y29853D01*
X81010Y29847D01*
X80899Y29845D01*
X77724Y29845D01*
X89535Y29845D02*
X92710Y29845D01*
X92821Y29847D01*
X92931Y29853D01*
X93042Y29862D01*
X93152Y29876D01*
X93261Y29893D01*
X93370Y29914D01*
X93478Y29939D01*
X93585Y29968D01*
X93691Y30000D01*
X93796Y30036D01*
X93899Y30076D01*
X94001Y30119D01*
X94102Y30166D01*
X94201Y30217D01*
X94297Y30270D01*
X94392Y30327D01*
X94485Y30388D01*
X94576Y30451D01*
X94665Y30518D01*
X94751Y30588D01*
X94834Y30661D01*
X94916Y30736D01*
X94994Y30814D01*
X95069Y30896D01*
X95142Y30979D01*
X95212Y31065D01*
X95279Y31154D01*
X95342Y31245D01*
X95403Y31338D01*
X95460Y31432D01*
X95513Y31529D01*
X95564Y31628D01*
X95611Y31729D01*
X95654Y31831D01*
X95694Y31934D01*
X95730Y32039D01*
X95762Y32145D01*
X95791Y32252D01*
X95816Y32360D01*
X95837Y32469D01*
X95854Y32578D01*
X95868Y32688D01*
X95877Y32799D01*
X95883Y32909D01*
X95885Y33020D01*
X95883Y33131D01*
X95877Y33241D01*
X95868Y33352D01*
X95854Y33462D01*
X95837Y33571D01*
X95816Y33680D01*
X95791Y33788D01*
X95762Y33895D01*
X95730Y34001D01*
X95694Y34106D01*
X95654Y34209D01*
X95611Y34311D01*
X95564Y34412D01*
X95513Y34511D01*
X95460Y34607D01*
X95403Y34702D01*
X95342Y34795D01*
X95279Y34886D01*
X95212Y34975D01*
X95142Y35061D01*
X95069Y35144D01*
X94994Y35226D01*
X94916Y35304D01*
X94834Y35379D01*
X94751Y35452D01*
X94665Y35522D01*
X94576Y35589D01*
X94485Y35652D01*
X94392Y35713D01*
X94298Y35770D01*
X94201Y35823D01*
X94102Y35874D01*
X94001Y35921D01*
X93899Y35964D01*
X93796Y36004D01*
X93691Y36040D01*
X93585Y36072D01*
X93478Y36101D01*
X93370Y36126D01*
X93261Y36147D01*
X93152Y36164D01*
X93042Y36178D01*
X92931Y36187D01*
X92821Y36193D01*
X92710Y36195D01*
X93345Y41275D02*
X89535Y41275D01*
X93345Y41275D02*
X93445Y41273D01*
X93544Y41267D01*
X93644Y41257D01*
X93742Y41244D01*
X93841Y41226D01*
X93938Y41205D01*
X94034Y41180D01*
X94130Y41151D01*
X94224Y41118D01*
X94317Y41082D01*
X94408Y41042D01*
X94498Y40998D01*
X94586Y40951D01*
X94672Y40901D01*
X94756Y40847D01*
X94838Y40790D01*
X94917Y40730D01*
X94995Y40666D01*
X95069Y40600D01*
X95141Y40531D01*
X95210Y40459D01*
X95276Y40385D01*
X95340Y40307D01*
X95400Y40228D01*
X95457Y40146D01*
X95511Y40062D01*
X95561Y39976D01*
X95608Y39888D01*
X95652Y39798D01*
X95692Y39707D01*
X95728Y39614D01*
X95761Y39520D01*
X95790Y39424D01*
X95815Y39328D01*
X95836Y39231D01*
X95854Y39132D01*
X95867Y39034D01*
X95877Y38934D01*
X95883Y38835D01*
X95885Y38735D01*
X95883Y38635D01*
X95877Y38536D01*
X95867Y38436D01*
X95854Y38338D01*
X95836Y38239D01*
X95815Y38142D01*
X95790Y38046D01*
X95761Y37950D01*
X95728Y37856D01*
X95692Y37763D01*
X95652Y37672D01*
X95608Y37582D01*
X95561Y37494D01*
X95511Y37408D01*
X95457Y37324D01*
X95400Y37242D01*
X95340Y37163D01*
X95276Y37085D01*
X95210Y37011D01*
X95141Y36939D01*
X95069Y36870D01*
X94995Y36804D01*
X94917Y36740D01*
X94838Y36680D01*
X94756Y36623D01*
X94672Y36569D01*
X94586Y36519D01*
X94498Y36472D01*
X94408Y36428D01*
X94317Y36388D01*
X94224Y36352D01*
X94130Y36319D01*
X94034Y36290D01*
X93938Y36265D01*
X93841Y36244D01*
X93742Y36226D01*
X93644Y36213D01*
X93544Y36203D01*
X93445Y36197D01*
X93345Y36195D01*
X90805Y36195D01*
D10*
X25400Y83820D02*
X25400Y124460D01*
X25400Y83820D02*
X50800Y83820D01*
X50800Y124460D01*
X25400Y124460D01*
X38100Y110490D02*
X38100Y104140D01*
X44450Y93980D02*
X31750Y93980D01*
X38100Y104140D01*
X38100Y88900D01*
X44450Y93980D02*
X38100Y104140D01*
X44450Y104140D01*
X38100Y104140D02*
X31750Y104140D01*
D17*
X38100Y118110D03*
D18*
X38100Y74295D03*
X38100Y133985D03*
D12*
X45085Y62484D02*
X56515Y62484D01*
X45085Y62484D02*
X45085Y65659D01*
X45087Y65770D01*
X45093Y65880D01*
X45102Y65991D01*
X45116Y66101D01*
X45133Y66210D01*
X45154Y66319D01*
X45179Y66427D01*
X45208Y66534D01*
X45240Y66640D01*
X45276Y66745D01*
X45316Y66848D01*
X45359Y66950D01*
X45406Y67051D01*
X45457Y67150D01*
X45510Y67247D01*
X45567Y67341D01*
X45628Y67434D01*
X45691Y67525D01*
X45758Y67614D01*
X45828Y67700D01*
X45901Y67783D01*
X45976Y67865D01*
X46054Y67943D01*
X46136Y68018D01*
X46219Y68091D01*
X46305Y68161D01*
X46394Y68228D01*
X46485Y68291D01*
X46578Y68352D01*
X46673Y68409D01*
X46769Y68462D01*
X46868Y68513D01*
X46969Y68560D01*
X47071Y68603D01*
X47174Y68643D01*
X47279Y68679D01*
X47385Y68711D01*
X47492Y68740D01*
X47600Y68765D01*
X47709Y68786D01*
X47818Y68803D01*
X47928Y68817D01*
X48039Y68826D01*
X48149Y68832D01*
X48260Y68834D01*
X53340Y68834D01*
X53451Y68832D01*
X53561Y68826D01*
X53672Y68817D01*
X53782Y68803D01*
X53891Y68786D01*
X54000Y68765D01*
X54108Y68740D01*
X54215Y68711D01*
X54321Y68679D01*
X54426Y68643D01*
X54529Y68603D01*
X54631Y68560D01*
X54732Y68513D01*
X54831Y68462D01*
X54928Y68409D01*
X55022Y68352D01*
X55115Y68291D01*
X55206Y68228D01*
X55295Y68161D01*
X55381Y68091D01*
X55464Y68018D01*
X55546Y67943D01*
X55624Y67865D01*
X55699Y67783D01*
X55772Y67700D01*
X55842Y67614D01*
X55909Y67525D01*
X55972Y67434D01*
X56033Y67341D01*
X56090Y67247D01*
X56143Y67150D01*
X56194Y67051D01*
X56241Y66950D01*
X56284Y66848D01*
X56324Y66745D01*
X56360Y66640D01*
X56392Y66534D01*
X56421Y66427D01*
X56446Y66319D01*
X56467Y66210D01*
X56484Y66101D01*
X56498Y65991D01*
X56507Y65880D01*
X56513Y65770D01*
X56515Y65659D01*
X56515Y62484D01*
X53975Y74295D02*
X45085Y76835D01*
X53975Y74295D02*
X53975Y80645D01*
X51435Y78740D02*
X56515Y78740D01*
X341630Y119380D02*
X342900Y148590D01*
X341630Y119380D02*
X339090Y116840D01*
X245110Y116840D01*
X242570Y119380D01*
X241300Y148590D01*
X244602Y122936D02*
X244604Y123036D01*
X244610Y123137D01*
X244620Y123236D01*
X244634Y123336D01*
X244651Y123435D01*
X244673Y123533D01*
X244699Y123630D01*
X244728Y123726D01*
X244761Y123820D01*
X244798Y123914D01*
X244838Y124006D01*
X244882Y124096D01*
X244930Y124184D01*
X244981Y124271D01*
X245035Y124355D01*
X245093Y124437D01*
X245154Y124517D01*
X245218Y124594D01*
X245285Y124669D01*
X245355Y124741D01*
X245428Y124810D01*
X245503Y124876D01*
X245581Y124940D01*
X245661Y125000D01*
X245744Y125057D01*
X245829Y125110D01*
X245916Y125160D01*
X246005Y125207D01*
X246095Y125250D01*
X246187Y125290D01*
X246281Y125326D01*
X246376Y125358D01*
X246472Y125386D01*
X246570Y125411D01*
X246668Y125431D01*
X246767Y125448D01*
X246867Y125461D01*
X246966Y125470D01*
X247067Y125475D01*
X247167Y125476D01*
X247267Y125473D01*
X247368Y125466D01*
X247467Y125455D01*
X247567Y125440D01*
X247665Y125422D01*
X247763Y125399D01*
X247860Y125372D01*
X247955Y125342D01*
X248050Y125308D01*
X248143Y125270D01*
X248234Y125229D01*
X248324Y125184D01*
X248412Y125136D01*
X248498Y125084D01*
X248582Y125029D01*
X248663Y124970D01*
X248742Y124908D01*
X248819Y124844D01*
X248893Y124776D01*
X248964Y124705D01*
X249033Y124632D01*
X249098Y124556D01*
X249161Y124477D01*
X249220Y124396D01*
X249276Y124313D01*
X249329Y124228D01*
X249378Y124140D01*
X249424Y124051D01*
X249466Y123960D01*
X249505Y123867D01*
X249540Y123773D01*
X249571Y123678D01*
X249599Y123581D01*
X249622Y123484D01*
X249642Y123385D01*
X249658Y123286D01*
X249670Y123187D01*
X249678Y123086D01*
X249682Y122986D01*
X249682Y122886D01*
X249678Y122786D01*
X249670Y122685D01*
X249658Y122586D01*
X249642Y122487D01*
X249622Y122388D01*
X249599Y122291D01*
X249571Y122194D01*
X249540Y122099D01*
X249505Y122005D01*
X249466Y121912D01*
X249424Y121821D01*
X249378Y121732D01*
X249329Y121644D01*
X249276Y121559D01*
X249220Y121476D01*
X249161Y121395D01*
X249098Y121316D01*
X249033Y121240D01*
X248964Y121167D01*
X248893Y121096D01*
X248819Y121028D01*
X248742Y120964D01*
X248663Y120902D01*
X248582Y120843D01*
X248498Y120788D01*
X248412Y120736D01*
X248324Y120688D01*
X248234Y120643D01*
X248143Y120602D01*
X248050Y120564D01*
X247955Y120530D01*
X247860Y120500D01*
X247763Y120473D01*
X247665Y120450D01*
X247567Y120432D01*
X247467Y120417D01*
X247368Y120406D01*
X247267Y120399D01*
X247167Y120396D01*
X247067Y120397D01*
X246966Y120402D01*
X246867Y120411D01*
X246767Y120424D01*
X246668Y120441D01*
X246570Y120461D01*
X246472Y120486D01*
X246376Y120514D01*
X246281Y120546D01*
X246187Y120582D01*
X246095Y120622D01*
X246005Y120665D01*
X245916Y120712D01*
X245829Y120762D01*
X245744Y120815D01*
X245661Y120872D01*
X245581Y120932D01*
X245503Y120996D01*
X245428Y121062D01*
X245355Y121131D01*
X245285Y121203D01*
X245218Y121278D01*
X245154Y121355D01*
X245093Y121435D01*
X245035Y121517D01*
X244981Y121601D01*
X244930Y121688D01*
X244882Y121776D01*
X244838Y121866D01*
X244798Y121958D01*
X244761Y122052D01*
X244728Y122146D01*
X244699Y122242D01*
X244673Y122339D01*
X244651Y122437D01*
X244634Y122536D01*
X244620Y122636D01*
X244610Y122735D01*
X244604Y122836D01*
X244602Y122936D01*
D19*
X292100Y156210D03*
D20*
X248285Y149860D03*
D21*
X279400Y149860D03*
X304800Y149860D03*
D20*
X335915Y149860D03*
D12*
X243205Y163703D02*
X243205Y175133D01*
X241935Y163703D02*
X244475Y163703D01*
X244475Y175133D02*
X241935Y175133D01*
X251677Y163703D02*
X254217Y163703D01*
X251677Y163703D02*
X251577Y163705D01*
X251478Y163711D01*
X251378Y163721D01*
X251280Y163734D01*
X251181Y163752D01*
X251084Y163773D01*
X250988Y163798D01*
X250892Y163827D01*
X250798Y163860D01*
X250705Y163896D01*
X250614Y163936D01*
X250524Y163980D01*
X250436Y164027D01*
X250350Y164077D01*
X250266Y164131D01*
X250184Y164188D01*
X250105Y164248D01*
X250027Y164312D01*
X249953Y164378D01*
X249881Y164447D01*
X249812Y164519D01*
X249746Y164593D01*
X249682Y164671D01*
X249622Y164750D01*
X249565Y164832D01*
X249511Y164916D01*
X249461Y165002D01*
X249414Y165090D01*
X249370Y165180D01*
X249330Y165271D01*
X249294Y165364D01*
X249261Y165458D01*
X249232Y165554D01*
X249207Y165650D01*
X249186Y165747D01*
X249168Y165846D01*
X249155Y165944D01*
X249145Y166044D01*
X249139Y166143D01*
X249137Y166243D01*
X249137Y172593D01*
X249139Y172693D01*
X249145Y172792D01*
X249155Y172892D01*
X249168Y172990D01*
X249186Y173089D01*
X249207Y173186D01*
X249232Y173282D01*
X249261Y173378D01*
X249294Y173472D01*
X249330Y173565D01*
X249370Y173656D01*
X249414Y173746D01*
X249461Y173834D01*
X249511Y173920D01*
X249565Y174004D01*
X249622Y174086D01*
X249682Y174165D01*
X249746Y174243D01*
X249812Y174317D01*
X249881Y174389D01*
X249953Y174458D01*
X250027Y174524D01*
X250105Y174588D01*
X250184Y174648D01*
X250266Y174705D01*
X250350Y174759D01*
X250436Y174809D01*
X250524Y174856D01*
X250614Y174900D01*
X250705Y174940D01*
X250798Y174976D01*
X250892Y175009D01*
X250988Y175038D01*
X251084Y175063D01*
X251181Y175084D01*
X251280Y175102D01*
X251378Y175115D01*
X251478Y175125D01*
X251577Y175131D01*
X251677Y175133D01*
X254217Y175133D01*
X258699Y172593D02*
X261874Y175133D01*
X261874Y163703D01*
X258699Y163703D02*
X265049Y163703D01*
D10*
X63500Y226060D02*
X55880Y226060D01*
X55880Y207010D01*
X54610Y205740D01*
X52070Y203200D01*
X54610Y200660D01*
X55880Y199390D01*
X16510Y205740D02*
X15240Y205740D01*
X15240Y226060D01*
X16510Y205740D02*
X16510Y200660D01*
X15240Y200660D01*
X15240Y180340D01*
X55880Y180340D02*
X55880Y199390D01*
X55880Y180340D02*
X63500Y180340D01*
X55880Y226060D02*
X22860Y226060D01*
X20320Y226060D02*
X15240Y226060D01*
X20320Y226060D02*
X20320Y222250D01*
X20320Y180340D02*
X15240Y180340D01*
X20320Y180340D02*
X20320Y184150D01*
X22860Y180340D02*
X55880Y180340D01*
X22860Y184150D02*
X20320Y184150D01*
X25400Y184150D02*
X25400Y196850D01*
X22860Y209550D02*
X20320Y209550D01*
X20320Y222250D02*
X22860Y222250D01*
X25400Y222250D02*
X25400Y209550D01*
X20320Y209550D02*
X20320Y196850D01*
X22860Y209550D02*
X25400Y209550D01*
X22860Y196850D02*
X20320Y196850D01*
X22860Y196850D02*
X25400Y196850D01*
X22860Y196850D02*
X22860Y200660D01*
X54610Y200660D01*
X22860Y205740D02*
X22860Y209550D01*
X22860Y205740D02*
X22860Y200660D01*
X22860Y205740D02*
X54610Y205740D01*
X22860Y184150D02*
X22860Y180340D01*
X22860Y184150D02*
X25400Y184150D01*
X22860Y180340D02*
X20320Y180340D01*
X22860Y222250D02*
X22860Y226060D01*
X22860Y222250D02*
X25400Y222250D01*
X22860Y226060D02*
X20320Y226060D01*
X63500Y226060D02*
X63500Y218440D01*
X64770Y218440D01*
X64770Y213360D02*
X63500Y213360D01*
X64770Y213360D02*
X64770Y218440D01*
X64770Y193040D02*
X63500Y193040D01*
X63500Y187960D02*
X63500Y180340D01*
X63500Y187960D02*
X64770Y187960D01*
X64770Y193040D01*
X63500Y200660D02*
X62230Y200660D01*
X63500Y200660D02*
X63500Y193040D01*
X62230Y200660D02*
X62230Y205740D01*
X63500Y205740D01*
X63500Y213360D01*
D12*
X50532Y220091D02*
X48133Y218172D01*
X50532Y220091D02*
X50532Y211455D01*
X48133Y211455D02*
X52931Y211455D01*
X68199Y178054D02*
X79629Y178054D01*
X79629Y176784D02*
X79629Y179324D01*
X68199Y179324D02*
X68199Y176784D01*
X68199Y184404D02*
X79629Y184404D01*
X79629Y190754D02*
X68199Y184404D01*
X68199Y190754D02*
X79629Y190754D01*
X79629Y196787D02*
X68199Y196787D01*
X68199Y199962D01*
X68201Y200073D01*
X68207Y200183D01*
X68216Y200294D01*
X68230Y200404D01*
X68247Y200513D01*
X68268Y200622D01*
X68293Y200730D01*
X68322Y200837D01*
X68354Y200943D01*
X68390Y201048D01*
X68430Y201151D01*
X68473Y201253D01*
X68520Y201354D01*
X68571Y201453D01*
X68624Y201550D01*
X68681Y201644D01*
X68742Y201737D01*
X68805Y201828D01*
X68872Y201917D01*
X68942Y202003D01*
X69015Y202086D01*
X69090Y202168D01*
X69168Y202246D01*
X69250Y202321D01*
X69333Y202394D01*
X69419Y202464D01*
X69508Y202531D01*
X69599Y202594D01*
X69692Y202655D01*
X69787Y202712D01*
X69883Y202765D01*
X69982Y202816D01*
X70083Y202863D01*
X70185Y202906D01*
X70288Y202946D01*
X70393Y202982D01*
X70499Y203014D01*
X70606Y203043D01*
X70714Y203068D01*
X70823Y203089D01*
X70932Y203106D01*
X71042Y203120D01*
X71153Y203129D01*
X71263Y203135D01*
X71374Y203137D01*
X71485Y203135D01*
X71595Y203129D01*
X71706Y203120D01*
X71816Y203106D01*
X71925Y203089D01*
X72034Y203068D01*
X72142Y203043D01*
X72249Y203014D01*
X72355Y202982D01*
X72460Y202946D01*
X72563Y202906D01*
X72665Y202863D01*
X72766Y202816D01*
X72865Y202765D01*
X72962Y202712D01*
X73056Y202655D01*
X73149Y202594D01*
X73240Y202531D01*
X73329Y202464D01*
X73415Y202394D01*
X73498Y202321D01*
X73580Y202246D01*
X73658Y202168D01*
X73733Y202086D01*
X73806Y202003D01*
X73876Y201917D01*
X73943Y201828D01*
X74006Y201737D01*
X74067Y201644D01*
X74124Y201550D01*
X74177Y201453D01*
X74228Y201354D01*
X74275Y201253D01*
X74318Y201151D01*
X74358Y201048D01*
X74394Y200943D01*
X74426Y200837D01*
X74455Y200730D01*
X74480Y200622D01*
X74501Y200513D01*
X74518Y200404D01*
X74532Y200294D01*
X74541Y200183D01*
X74547Y200073D01*
X74549Y199962D01*
X74549Y196787D01*
X76454Y208026D02*
X68199Y208026D01*
X76454Y208026D02*
X76565Y208028D01*
X76675Y208034D01*
X76786Y208043D01*
X76896Y208057D01*
X77005Y208074D01*
X77114Y208095D01*
X77222Y208120D01*
X77329Y208149D01*
X77435Y208181D01*
X77540Y208217D01*
X77643Y208257D01*
X77745Y208300D01*
X77846Y208347D01*
X77945Y208398D01*
X78041Y208451D01*
X78136Y208508D01*
X78229Y208569D01*
X78320Y208632D01*
X78409Y208699D01*
X78495Y208769D01*
X78578Y208842D01*
X78660Y208917D01*
X78738Y208995D01*
X78813Y209077D01*
X78886Y209160D01*
X78956Y209246D01*
X79023Y209335D01*
X79086Y209426D01*
X79147Y209519D01*
X79204Y209613D01*
X79257Y209710D01*
X79308Y209809D01*
X79355Y209910D01*
X79398Y210012D01*
X79438Y210115D01*
X79474Y210220D01*
X79506Y210326D01*
X79535Y210433D01*
X79560Y210541D01*
X79581Y210650D01*
X79598Y210759D01*
X79612Y210869D01*
X79621Y210980D01*
X79627Y211090D01*
X79629Y211201D01*
X79627Y211312D01*
X79621Y211422D01*
X79612Y211533D01*
X79598Y211643D01*
X79581Y211752D01*
X79560Y211861D01*
X79535Y211969D01*
X79506Y212076D01*
X79474Y212182D01*
X79438Y212287D01*
X79398Y212390D01*
X79355Y212492D01*
X79308Y212593D01*
X79257Y212692D01*
X79204Y212788D01*
X79147Y212883D01*
X79086Y212976D01*
X79023Y213067D01*
X78956Y213156D01*
X78886Y213242D01*
X78813Y213325D01*
X78738Y213407D01*
X78660Y213485D01*
X78578Y213560D01*
X78495Y213633D01*
X78409Y213703D01*
X78320Y213770D01*
X78229Y213833D01*
X78136Y213894D01*
X78042Y213951D01*
X77945Y214004D01*
X77846Y214055D01*
X77745Y214102D01*
X77643Y214145D01*
X77540Y214185D01*
X77435Y214221D01*
X77329Y214253D01*
X77222Y214282D01*
X77114Y214307D01*
X77005Y214328D01*
X76896Y214345D01*
X76786Y214359D01*
X76675Y214368D01*
X76565Y214374D01*
X76454Y214376D01*
X68199Y214376D01*
X68199Y222250D02*
X79629Y222250D01*
X68199Y219075D02*
X68199Y225425D01*
M02*
