M48
;GenerationSoftware,Autodesk,EAGLE,9.6.2*%
;CreationDate,2021-01-11T07:07:47Z*%
FMAT,2
ICI,OFF
METRIC,TZ,000.000
T5C0.813
T4C0.914
T3C1.016
T2C1.118
T1C2.000
%
G90
M71
T1
X1778Y24638
X36830Y24892
X1524Y1524
X36830Y1524
T2
X7366Y15748
X17526Y15748
X21082Y5588
X21082Y15748
X7112Y4826
X17272Y4826
X3810Y5334
X3810Y15494
T3
X26670Y13462
X29210Y13462
X31750Y13462
T4
X34036Y6604
X31496Y6604
X3810Y21590
X3810Y19050
T5
X9398Y11938
X9398Y9398
X15240Y11938
X15240Y9398
X27686Y6604
X25146Y6604
M30